<svg width="61" height="62" viewBox="0 0 61 62" fill="none" xmlns="http://www.w3.org/2000/svg">
<g opacity="0.7">
<path d="M9.74517 12.087L14.4845 51.6759L1.84625 38.9841C-0.0240688 37.1059 -0.53251 34.2429 0.593314 31.8176L9.74517 12.087Z" fill="#0F4C59"/>
<path d="M37.0554 3.09706C35.7298 1.76588 33.914 1 32.0255 1C30.8452 1 29.7012 1.29176 28.6662 1.85706L9.74512 12.0871V44.3088C9.74512 45.9865 10.417 47.5912 11.5973 48.7947L14.4845 51.6941H49.1852V43.78L60.2256 26.3653L37.0554 3.09706Z" stroke="#0F4C59" stroke-miterlimit="10"/>
<path d="M9.74512 12.087H43.3927C45.0633 12.087 46.6612 12.7617 47.8597 13.947L60.2074 26.347V51.6759H49.1671L9.74512 12.087Z" fill="#0F4C59"/>
<path d="M49.167 51.6759H14.4844L23.9449 61.1765H49.167V51.6759Z" stroke="#0F4C59" stroke-miterlimit="10"/>
</g>
</svg>
