<svg width="53" height="54" viewBox="0 0 53 54" fill="none" xmlns="http://www.w3.org/2000/svg">
<path opacity="0.7" d="M52.2418 15.2929C52.2418 14.7641 52.2237 14.2353 52.2237 13.7065C52.2055 12.5576 52.1147 11.3906 51.915 10.26C51.7152 9.11116 51.3521 8.01705 50.8436 6.97763C49.7904 4.89881 48.1017 3.22116 46.0498 2.16352C45.0148 1.63469 43.9253 1.26999 42.7813 1.08763C41.6373 0.905282 40.4933 0.79587 39.3493 0.777635C38.8227 0.759399 38.2961 0.759399 37.7695 0.759399H14.4541C13.9275 0.759399 13.4009 0.777635 12.8743 0.777635C12.5838 0.777635 12.2933 0.79587 12.0209 0.814106C11.1493 0.850576 10.2958 0.941752 9.44239 1.08763C8.58894 1.23352 7.77181 1.47058 6.97284 1.79881C6.70046 1.90822 6.44625 2.03587 6.17387 2.16352C5.41122 2.56469 4.68488 3.03881 4.03118 3.60411C3.81327 3.78646 3.59537 3.98705 3.39563 4.18763C2.5785 5.00822 1.88847 5.95646 1.38004 6.97763C0.853444 8.01705 0.490281 9.11116 0.308697 10.26C0.127113 11.3906 0.0181554 12.5576 0.0181554 13.7065C-3.04743e-06 14.2353 0 14.7641 0 15.2929V38.707C0 39.2359 0.0181554 39.7647 0.0181554 40.2935C0.0363138 41.4423 0.12711 42.6094 0.326852 43.74C0.526595 44.8888 0.889764 45.9829 1.3982 47.0223C2.45139 49.1012 4.14012 50.7788 6.19203 51.8365C7.22706 52.3653 8.31656 52.7118 9.46054 52.9123C10.6045 53.0947 11.7485 53.2041 12.8925 53.2223C13.4191 53.2406 13.9457 53.2406 14.4723 53.2406H37.7877C38.3143 53.2406 38.8409 53.2223 39.3675 53.2223C40.5115 53.2041 41.6736 53.1129 42.7994 52.9123C43.9434 52.7118 45.0329 52.347 46.068 51.8365C48.138 50.7788 49.8086 49.0829 50.8618 47.0223C51.3884 45.9829 51.7515 44.8888 51.9331 43.74C52.1147 42.6094 52.2237 41.4423 52.2418 40.2935C52.26 39.7647 52.26 39.2359 52.26 38.707V17.1712C52.2418 16.5512 52.2418 15.9129 52.2418 15.2929ZM44.0887 43.5394C41.7462 38.9806 37.4064 40.1112 35.1911 41.26C34.9913 41.3694 34.7916 41.497 34.5737 41.6065L34.5192 41.6429C29.9069 44.1047 23.7149 44.287 17.5047 41.6065C12.4385 39.4 8.15314 35.7165 5.22963 31.0118C6.66415 32.0694 8.18946 32.9994 9.80556 33.747C16.3789 36.847 22.9886 36.61 27.6553 33.747C21.0093 28.6047 15.4528 21.9123 11.1856 16.4965C10.3685 15.5482 9.64213 14.527 8.98843 13.4694C14.0909 18.1559 22.1351 24.0459 25.0223 25.6688C18.8848 19.1588 13.4917 11.1535 13.7459 11.4088C23.4062 21.1829 32.322 26.7082 32.322 26.7082C32.667 26.8906 32.9031 27.0365 33.1028 27.1823C33.2844 26.7082 33.4478 26.2159 33.5931 25.7235C35.1366 20.0523 33.3934 13.5788 29.4711 8.23587C38.4233 13.6335 43.7255 23.9 41.5647 32.58C41.5102 32.7806 41.4557 32.9812 41.4012 33.1817C45.8682 38.707 44.6516 44.6517 44.0887 43.5394Z" fill="#0F4C59"/>
</svg>
