<svg width="55" height="54" viewBox="0 0 55 54" fill="none" xmlns="http://www.w3.org/2000/svg">
<g opacity="0.7">
<path d="M42.8768 0H12.1073C5.42522 0 0 5.43334 0 12.1414V41.714C0 48.4061 5.42522 53.8394 12.1073 53.8394H42.8768C49.5589 53.8394 54.9841 48.4061 54.9841 41.714V12.1414C54.9841 5.43334 49.5589 0 42.8768 0ZM19.569 40.2322H14.8915V14.5633H19.569V40.2322ZM40.0926 40.2322H40.0608H36.2583L36.0833 37.3004H36.0197C35.0014 39.3559 32.9491 40.6624 30.4672 40.6624C26.5056 40.6624 23.3555 36.9977 23.2441 31.421C23.2441 31.3413 23.2282 31.2616 23.2282 31.166V31.0863C23.2282 24.936 26.7602 21.2713 30.8172 21.2713C33.1559 21.2713 34.8264 22.3388 35.5901 23.7091H35.6697V13.193H39.9494V35.5477C39.9494 35.978 39.9494 36.4241 39.9653 36.8543C39.9653 37.3323 39.9812 37.8103 39.9971 38.2564C39.9971 38.4317 40.013 38.6229 40.013 38.7982C40.0448 39.324 40.0607 39.802 40.0926 40.2163C40.0926 40.2322 40.0926 40.2322 40.0926 40.2322Z" fill="#0F4C59"/>
<path d="M31.8671 24.8882C29.1147 24.8882 27.5874 27.5491 27.5874 31.0226C27.5874 31.1023 27.6033 31.182 27.6033 31.2776C27.6829 34.528 29.1943 36.8862 31.8353 36.8862C33.5695 36.8862 35.1127 35.5955 35.5264 33.572C35.6377 33.1577 35.6696 32.6956 35.6696 32.2017V29.4133C35.6696 29.0309 35.6377 28.5848 35.5582 28.2024C35.1764 26.37 33.824 24.8882 31.8671 24.8882Z" fill="#0F4C59"/>
</g>
</svg>
