<svg width="56" height="56" viewBox="0 0 56 56" fill="none" xmlns="http://www.w3.org/2000/svg">
<path opacity="0.7" d="M6.06068 18.2122L17.5164 49.5932C9.4939 45.7056 3.97623 37.4926 3.97623 27.9838C3.99374 24.4989 4.72943 21.2067 6.06068 18.2122ZM44.2114 26.7755C44.2114 23.7985 43.1429 21.7496 42.2321 20.156C41.0059 18.1772 39.8674 16.4961 39.8674 14.5172C39.8674 12.3108 41.5314 10.2444 43.8962 10.2444C44.0013 10.2444 44.1063 10.2619 44.2114 10.2619C39.9374 6.33927 34.2446 3.95767 27.9912 3.95767C19.6009 3.95767 12.2265 8.26556 7.91742 14.7799C8.47795 14.7974 9.02096 14.8149 9.45887 14.8149C11.9637 14.8149 15.8524 14.5172 15.8524 14.5172C17.1486 14.4297 17.3062 16.3385 16.01 16.4961C16.01 16.4961 14.7138 16.6362 13.2599 16.7237L22.0181 42.7286L27.2731 26.9681L23.5421 16.7237C22.2459 16.6362 21.0197 16.4961 21.0197 16.4961C19.7235 16.4085 19.8811 14.4472 21.1598 14.5172C21.1598 14.5172 25.1185 14.8149 27.4833 14.8149C29.9881 14.8149 33.8768 14.5172 33.8768 14.5172C35.173 14.4297 35.3131 16.3385 34.0344 16.4961C34.0344 16.4961 32.7382 16.6362 31.2843 16.7237L39.9725 42.536L42.3722 34.5332C43.4232 31.2059 44.2114 28.8243 44.2114 26.7755ZM28.4116 30.0852L21.2124 51.0292C23.3669 51.6596 25.644 52.0099 27.9912 52.0099C30.7939 52.0099 33.4739 51.5195 35.9612 50.644C35.8912 50.5389 35.8386 50.4338 35.7861 50.3112L28.4116 30.0852ZM49.081 16.4611C49.1861 17.2316 49.2387 18.0371 49.2387 18.9302C49.2387 21.3643 48.7832 24.0962 47.417 27.5285L40.0776 48.7352C47.2243 44.5674 52.0238 36.8447 52.0238 27.9838C52.0063 23.7985 50.9553 19.8758 49.081 16.4611ZM56 27.9838C56 43.4291 43.4407 55.9675 28.0088 55.9675C12.5593 55.9675 0 43.4116 0 27.9838C0 12.5384 12.5593 1.82955e-05 27.9912 1.82955e-05C43.4407 -0.0174934 56 12.5384 56 27.9838ZM54.7038 27.9838C54.7038 13.2564 42.7226 1.27838 27.9912 1.27838C13.2599 1.27838 1.2787 13.2564 1.2787 27.9838C1.2787 42.7111 13.2599 54.6892 27.9912 54.6892C42.7401 54.6892 54.7038 42.7111 54.7038 27.9838Z" fill="#0F4C59"/>
</svg>
