<svg width="55" height="54" viewBox="0 0 55 54" fill="none" xmlns="http://www.w3.org/2000/svg">
<g opacity="0.7">
<path d="M42.0495 0H12.871C5.75933 0 0 5.76794 0 12.8902V41.0767C0 48.199 5.75933 53.9669 12.871 53.9669H42.0495C49.1611 53.9669 54.9205 48.199 54.9205 41.0767V12.8902C54.9364 5.76794 49.1611 0 42.0495 0ZM24.1987 40.7102L18.869 31.1501L13.4756 40.7102H8.86173L16.5461 27.0392L8.92537 13.4798H13.4596L18.8212 23.024L24.1828 13.4798H28.8285L21.1441 27.1189L28.8603 40.7102H24.1987ZM46.0746 40.2959H46.0428H42.2404L42.0654 37.3642H42.0017C40.9835 39.4196 38.9312 40.7261 36.4651 40.7261C32.4877 40.7261 29.3376 37.0614 29.2421 31.5006C29.2421 31.4209 29.2262 31.3413 29.2262 31.2457C29.1944 25.0316 32.7423 21.335 36.8152 21.335C39.1539 21.335 40.8244 22.4026 41.5881 23.7729H41.6517V13.7825V13.2567H45.9314V13.7825V35.1016C45.9473 36.9818 46.011 39.0372 46.0746 40.2959Z" fill="#0F4C59"/>
<path d="M37.8652 24.9361C35.1128 24.9361 33.5854 27.597 33.5854 31.0705C33.5854 31.1661 33.6014 31.2457 33.6014 31.3254C33.6809 34.5758 35.1923 36.934 37.8334 36.934C39.5834 36.934 41.1108 35.6434 41.5244 33.6198C41.6358 33.2055 41.6676 32.7435 41.6676 32.2495V29.987V29.4612C41.6676 29.0788 41.6358 28.6167 41.5721 28.2343C41.1744 26.4179 39.8221 24.9361 37.8652 24.9361Z" fill="#0F4C59"/>
</g>
</svg>
