<svg width="55" height="54" viewBox="0 0 55 54" fill="none" xmlns="http://www.w3.org/2000/svg">
<g opacity="0.7">
<path d="M44.0539 28.3298H44.0698C44.1016 26.5771 43.338 23.7091 40.1401 23.7091C37.1809 23.7091 35.9399 26.3859 35.749 28.3298H35.8286H44.0539Z" fill="#0F4C59"/>
<path d="M41.429 0H13.5551C6.06161 0 0 6.08659 0 13.5754V40.2481C0 47.7528 6.07752 53.8235 13.5551 53.8235H41.429C48.9225 53.8235 54.9841 47.7368 54.9841 40.2481V13.5754C54.9841 6.07066 48.9225 0 41.429 0ZM29.4171 39.8179H29.2421H24.2783L21.9077 32.3769H13.6028L11.3436 39.8179H6.57073H6.41163L14.637 14.1012L14.7961 13.5754H20.9054L21.0804 14.1012L29.4171 39.8179ZM31.1672 30.6242C31.1672 26.3859 33.2514 22.3547 37.2447 20.9526C38.1993 20.618 39.2493 20.4268 40.4108 20.4268C41.5881 20.4268 42.6222 20.618 43.5132 20.9526C47.2679 22.3388 48.5725 26.2903 48.5725 29.6523C48.5725 29.7638 48.5725 29.8594 48.5725 29.955C48.5565 30.7039 48.4929 31.2935 48.4293 31.6759H35.7651C35.7651 31.8671 35.8128 32.0264 35.8288 32.2017C36.1947 35.245 38.7243 36.5834 41.5881 36.5834C43.7995 36.5834 45.3905 36.2647 46.8383 35.723L47.5383 39.0372C47.5065 39.0531 47.4747 39.0531 47.4429 39.069C45.8201 39.7064 43.6086 40.2322 40.9358 40.2322C34.8583 40.2322 31.2627 36.4878 31.199 30.7836C31.1831 30.7358 31.1672 30.688 31.1672 30.6242Z" fill="#0F4C59"/>
<path d="M17.7234 17.3994H17.6438C17.2461 18.9131 16.8642 20.7455 16.4029 22.307L14.3823 28.76H14.5414H20.9371H21.0962L19.028 22.307C18.5348 20.6977 18.1052 18.9131 17.7234 17.3994Z" fill="#0F4C59"/>
</g>
</svg>
