<svg width="51" height="51" viewBox="0 0 51 51" fill="none" xmlns="http://www.w3.org/2000/svg">
<path opacity="0.7" d="M45.1573 0H5.41257C2.43478 0 0 2.43413 0 5.41113V45.1453C0 48.1398 2.43478 50.5564 5.41257 50.5564H45.1573C48.1526 50.5564 50.5699 48.1223 50.5699 45.1453V5.41113C50.5874 2.43413 48.1526 0 45.1573 0ZM27.5183 39.4364C27.5183 44.3572 24.6281 46.5987 20.4241 46.5987C16.6231 46.5987 14.416 44.6374 13.295 42.2558L17.1661 39.9268C17.9193 41.2401 18.5849 42.3609 20.2315 42.3609C21.7904 42.3609 22.7889 41.748 22.7889 39.3664V23.2206H27.5358L27.5183 39.4364ZM38.7638 46.5987C34.3497 46.5987 31.4945 44.4973 30.1107 41.748L33.9819 39.5065C34.9978 41.1701 36.3291 42.3959 38.6587 42.3959C40.6206 42.3959 41.8818 41.4153 41.8818 40.0493C41.8818 38.4208 40.6031 37.8429 38.4135 36.8972L37.2224 36.3894C33.7892 34.9359 31.5296 33.0972 31.5296 29.2271C31.5296 25.6547 34.2446 22.9579 38.4836 22.9579C41.5139 22.9579 43.6684 24.0086 45.2274 26.7579L41.5314 29.122C40.7257 27.6685 39.8323 27.0907 38.4661 27.0907C37.0823 27.0907 36.1889 27.9662 36.1889 29.122C36.1889 30.5405 37.0648 31.1184 39.1142 32.0115L40.3053 32.5193C44.3516 34.253 46.6112 36.0216 46.6112 39.9968C46.6462 44.2522 43.2656 46.5987 38.7638 46.5987Z" fill="#0F4C59"/>
</svg>
