<svg width="55" height="54" viewBox="0 0 55 54" fill="none" xmlns="http://www.w3.org/2000/svg">
<g opacity="0.7">
<path d="M23.1004 17.2083H23.0367C22.6549 18.6901 22.2731 20.4906 21.8117 22.0043L19.8389 28.3299H26.4096L24.405 22.0043C23.9118 20.4428 23.4822 18.6901 23.1004 17.2083Z" fill="#0F4C59"/>
<path d="M43.7041 0H11.28C5.04339 0 0 5.06687 0 11.2969V42.5426C0 48.7726 5.04339 53.8395 11.28 53.8395H43.7041C49.9248 53.8395 54.9841 48.7726 54.9841 42.5426V11.2969C54.9841 5.06687 49.9248 0 43.7041 0ZM29.5444 39.1487L27.2216 31.883H19.0758L16.8643 39.1487H12.0437L20.094 13.9897L20.2531 13.4798H26.2352L26.3943 13.9897L34.556 39.1487H29.5444ZM41.0949 39.1487H36.3856V20.6021H41.0949V39.1487ZM41.3335 15.6945C41.2063 16.9692 40.2358 17.9252 38.7084 17.9252C37.2447 17.9252 36.2583 16.9533 36.147 15.6786C36.131 15.5989 36.1151 15.5033 36.1151 15.4237C36.1151 14.5633 36.497 13.8463 37.1015 13.3842C37.547 13.0655 38.1039 12.8584 38.7402 12.8584C39.4085 12.8584 39.9494 13.0655 40.3789 13.3842C40.9835 13.8463 41.3494 14.5633 41.3654 15.4237C41.3654 15.5193 41.3494 15.6149 41.3335 15.6945Z" fill="#0F4C59"/>
</g>
</svg>
