<svg width="57" height="61" viewBox="0 0 57 61" fill="none" xmlns="http://www.w3.org/2000/svg">
<g opacity="0.7">
<path d="M36.7891 37.7642L37.6607 39.2959C38.042 38.8036 38.387 38.293 38.6957 37.7642H36.7891Z" fill="#0F4C59"/>
<path d="M14.5995 33.6795L22.0444 20.7324L19.6475 16.5748C19.0483 15.5536 19.4114 14.2224 20.4283 13.6207H20.4465C13.5463 15.5171 8.46191 21.863 8.46191 29.3942C8.46191 30.8713 8.66166 32.3118 9.02483 33.6795H14.5995Z" fill="#0F4C59"/>
<path d="M12.2571 37.7642H10.7681C11.0223 38.1836 11.2765 38.5848 11.567 38.9677L12.2571 37.7642Z" fill="#0F4C59"/>
<path d="M19.9559 16.3924L22.2439 20.3677L22.2983 20.2583L24.3139 16.7571L23.061 14.5871C22.8249 14.1677 22.4254 13.876 21.9715 13.7483C21.8081 13.7118 21.6628 13.6936 21.4994 13.6936C21.1907 13.6936 20.882 13.7665 20.6096 13.9307C19.7561 14.423 19.4656 15.5354 19.9559 16.3924Z" fill="#0F4C59"/>
<path d="M22.2442 21.0789L14.999 33.6795H19.1573L24.3143 24.6895L25.3312 22.9207L28.981 16.5565C29.4713 15.6995 29.1808 14.5871 28.3273 14.0948C28.0549 13.9307 27.7462 13.8577 27.4375 13.8577C26.802 13.8577 26.2028 14.2042 25.8759 14.7695L22.68 20.3313L22.2442 21.0789Z" fill="#0F4C59"/>
<path d="M12.0389 45.0036C12.511 44.8759 12.8923 44.5842 13.1284 44.1648L14.2905 42.1406L14.3813 41.9765L16.8145 37.7642H12.6562L11.7846 39.2777L11.6938 39.4418L10.0233 42.3595C9.53299 43.2165 9.82353 44.3289 10.677 44.8212C11.0946 45.0583 11.5667 45.1312 12.0389 45.0036Z" fill="#0F4C59"/>
<path d="M39.7125 37.4178C40.6386 37.4178 41.4013 36.6519 41.4013 35.7219C41.4013 35.0654 41.02 34.5001 40.4752 34.2084C40.4207 34.1901 40.3662 34.1536 40.3118 34.1354C40.1302 34.0625 39.9123 34.026 39.7125 34.026H36.0445C36.0264 34.0625 36.0082 34.1172 35.9901 34.1536C35.8085 34.5731 35.6269 34.9925 35.4453 35.4119L36.6075 37.4178H39.7125Z" fill="#0F4C59"/>
<path d="M56.1096 9.48126C56.0006 9.15303 55.7282 8.86126 55.4195 8.69715L52.7684 7.40244C52.1329 7.11067 51.3702 7.3842 51.007 7.98597C51.007 7.98597 50.9526 7.98597 50.8255 7.96773C50.3715 7.89479 49.7359 6.89185 49.4636 6.19891C49.3909 5.98009 49.2457 5.79773 49.0822 5.63362C47.5751 4.35715 43.4713 1.23891 37.7514 0.400086C30.597 -0.657561 25.5489 0.710086 25.3492 0.764792C24.7318 0.92891 24.296 1.53067 24.3505 2.18714C24.3868 2.82538 24.8771 3.3542 25.5126 3.44538C27.6371 3.75538 29.1806 4.12009 30.3791 4.5395H13.7096C13.2193 4.5395 12.7109 4.5395 12.2206 4.55773C11.9482 4.55773 11.6759 4.57597 11.4035 4.5942C10.5864 4.63067 9.76924 4.72185 8.97027 4.8495C8.17129 4.99538 7.39048 5.2142 6.62783 5.5242C6.37361 5.63362 6.11939 5.76126 5.86517 5.87067C5.13884 6.23538 4.44882 6.7095 3.83143 7.23832C3.63169 7.42067 3.43194 7.60303 3.2322 7.80362C2.46955 8.5695 1.81584 9.46303 1.32557 10.4477C0.835288 11.4324 0.490278 12.4719 0.308693 13.5477C0.127109 14.6236 0.0363169 15.7177 0.0363169 16.8119C0 17.3042 0 17.8148 0 18.3071V40.463C0 40.9554 0 41.466 0.0181584 41.9583C0.0363169 43.0524 0.127109 44.1466 0.308693 45.2224C0.490278 46.2983 0.835288 47.356 1.32557 48.3224C2.32428 50.2919 3.90406 51.8783 5.86517 52.8813C6.84573 53.3736 7.88076 53.7201 8.95211 53.9024C10.0235 54.0848 11.113 54.176 12.2025 54.1942C12.6927 54.2124 13.2012 54.2124 13.6915 54.2124H13.982C13.982 54.3036 14.0002 54.3401 14.0002 54.3401C14.0365 54.6683 14.0909 55.033 14.1999 55.3613C14.5812 56.656 15.5255 57.7319 16.7421 58.3154L19.3206 59.5371C19.938 59.8289 20.5553 60.0295 21.1546 60.1207C21.9172 60.2301 22.6617 60.1754 23.3336 59.9201C24.3868 59.5371 25.2039 58.6983 25.676 57.5677C25.7123 57.513 26.3116 56.2183 27.2195 54.2124H35.754C36.2442 54.2124 36.7527 54.2124 37.2429 54.1942C38.3325 54.176 39.422 54.0848 40.4933 53.9024C41.5647 53.7201 42.6178 53.3736 43.5802 52.8813C45.5413 51.8783 47.1211 50.2736 48.1198 48.3224C48.6101 47.3377 48.9551 46.2983 49.1367 45.2224C49.3183 44.1466 49.4091 43.0524 49.4272 41.9583C49.4454 41.466 49.4454 40.9554 49.4454 40.463V20.0942C49.4454 19.4924 49.4454 18.9089 49.4454 18.3071C49.4454 17.8148 49.4454 17.3042 49.4272 16.8119C49.4272 16.7754 49.4272 16.7389 49.4272 16.7024C50.1717 17.0671 51.0797 17.5048 51.0797 17.5048C51.7515 17.833 52.5687 17.5413 52.9137 16.8666L56.0369 10.5207C56.2003 10.2107 56.2185 9.82773 56.1096 9.48126ZM14.327 52.4254C14.0002 52.4254 13.637 52.4254 13.2738 52.4071C12.2751 52.3889 11.2582 52.2977 10.2595 52.1336C9.24264 51.9513 8.26209 51.6413 7.33601 51.1671C5.48385 50.2189 3.99485 48.7236 3.05062 46.8636C2.5785 45.9336 2.2698 44.9489 2.08822 43.9277C1.92479 42.943 1.834 41.9219 1.81584 40.9007C1.81584 40.4083 1.79768 39.9707 1.79768 39.533V19.2554C1.79768 18.836 1.79768 18.3619 1.81584 17.8695C1.834 16.8666 1.90664 15.8454 2.07006 14.8424C2.25165 13.8213 2.56034 12.8366 3.03246 11.9066C3.50458 10.9766 4.10381 10.1377 4.8483 9.40832C5.02989 9.22597 5.22963 9.04362 5.41121 8.8795C5.99228 8.36891 6.64599 7.9495 7.33601 7.58479C7.57207 7.49362 7.80813 7.3842 8.04419 7.27479C8.75236 6.98303 9.49686 6.7642 10.2595 6.63656C11.004 6.50891 11.7667 6.43597 12.5293 6.3995C12.7835 6.38126 13.0196 6.38126 13.2738 6.36303C13.8004 6.36303 14.2362 6.36303 14.6539 6.36303H33.5568C33.7747 6.56362 33.9926 6.7642 34.2105 6.96479H14.6539C14.2362 6.96479 13.8186 6.96479 13.292 6.98303C13.0559 6.98303 12.8017 7.00126 12.5475 7.00126C11.8211 7.03773 11.0766 7.11067 10.3503 7.23832C9.64213 7.36597 8.93395 7.56656 8.28024 7.84009C8.04419 7.93126 7.82628 8.04067 7.60838 8.15009C6.97284 8.47832 6.35545 8.8795 5.8107 9.35362C5.62911 9.51773 5.44753 9.68185 5.26595 9.84597C4.59408 10.5389 4.01301 11.323 3.57721 12.1983C3.14141 13.0736 2.83272 13.9854 2.66929 14.9519C2.50586 15.9183 2.43323 16.903 2.41507 17.8877C2.39691 18.3801 2.39691 18.8542 2.39691 19.2554V39.533C2.39691 39.9524 2.39691 40.4083 2.41507 40.9007C2.43323 41.8854 2.50586 42.8701 2.66929 43.8548C2.83272 44.8213 3.14141 45.733 3.57721 46.6083C4.46697 48.3589 5.86517 49.763 7.60838 50.6566C8.47999 51.0942 9.38791 51.4042 10.3503 51.5683C11.3127 51.7324 12.2933 51.8236 13.2738 51.8236C13.7459 51.8419 14.2181 51.8419 14.5994 51.8419C14.4904 52.0424 14.3996 52.243 14.327 52.4254ZM16.3971 48.8877C14.3088 47.976 12.3841 46.736 10.6953 45.2407C10.6227 45.2042 10.55 45.1677 10.4956 45.1313C10.1142 44.9124 9.84187 44.6024 9.66029 44.2377C5.91965 40.4083 3.61353 35.1748 3.61353 29.3942C3.61353 17.6871 13.0922 8.16832 24.7499 8.16832C28.8537 8.16832 32.6852 9.35362 35.9355 11.396C35.9355 11.4689 35.9355 11.5236 35.9355 11.5966C32.6852 9.5542 28.8537 8.35067 24.7318 8.35067C13.183 8.35067 3.77695 17.7966 3.77695 29.3942C3.77695 34.9742 5.95597 40.0436 9.4787 43.8183C9.33343 43.2895 9.40607 42.706 9.6966 42.1954L11.4398 39.1501C11.113 38.7124 10.8224 38.2566 10.55 37.7824H8.84316C7.71733 37.7824 6.80941 36.8707 6.80941 35.7401C6.80941 34.6095 7.71733 33.6977 8.84316 33.6977H8.86131C8.49815 32.3301 8.2984 30.8895 8.2984 29.4124C8.2984 20.2948 15.6889 12.8913 24.7499 12.8913C28.5087 12.8913 31.977 14.1677 34.7552 16.3195C34.7371 16.3742 34.7008 16.4289 34.6826 16.4836C31.9225 14.3501 28.4906 13.0736 24.7499 13.0736C23.6968 13.0736 22.6617 13.183 21.6449 13.3654C21.7901 13.3654 21.9354 13.4019 22.0625 13.4383C22.6254 13.5842 23.0794 13.9489 23.3699 14.4413L24.5139 16.4471L25.5671 14.6236C25.9484 13.9671 26.6566 13.5477 27.4192 13.5477C27.8006 13.5477 28.1637 13.6389 28.4906 13.8395C29.5075 14.4413 29.8706 15.7542 29.2714 16.7936L26.9834 20.7689L29.7254 25.5283C29.6527 25.656 29.5982 25.7654 29.5256 25.893L26.7837 21.1336L25.9484 22.5742L24.6955 24.7442L27.4737 29.5583C27.4011 29.686 27.3466 29.7954 27.274 29.923L24.4957 25.0907L19.5385 33.716H25.1494C25.0768 33.8254 25.0223 33.953 24.9497 34.0624H8.84316C7.91708 34.0624 7.15442 34.8283 7.15442 35.7583C7.15442 36.6883 7.91708 37.4542 8.84316 37.4542H23.0794C23.0067 37.5636 22.9523 37.6913 22.8796 37.8007H17.2142L14.6539 42.2501C15.9249 43.2713 17.3776 44.0919 18.9211 44.6936C18.8848 44.7483 18.8666 44.803 18.8303 44.8395C17.2868 44.2377 15.8523 43.4171 14.5631 42.396L13.4372 44.3471C13.1467 44.8395 12.6927 45.2042 12.1298 45.3501C11.9482 45.4048 11.7485 45.423 11.5669 45.423C11.4217 45.423 11.2764 45.4048 11.1311 45.3683C12.7291 46.736 14.5267 47.8848 16.4879 48.7236C16.4515 48.7783 16.4334 48.833 16.3971 48.8877ZM47.684 39.533C47.684 39.916 47.684 40.4083 47.6659 40.9189C47.6477 41.9219 47.5569 42.943 47.3935 43.946C47.2119 44.9671 46.9032 45.9519 46.4311 46.8819C45.4869 48.7419 43.9979 50.2371 42.1457 51.1854C41.2196 51.6595 40.2391 51.9695 39.2222 52.1519C38.2235 52.316 37.2066 52.4072 36.2079 52.4254C35.6813 52.4436 35.2455 52.4436 34.846 52.4436H28.0366C28.1274 52.243 28.2182 52.0424 28.2908 51.8419H34.8279C35.2455 51.8419 35.6632 51.8419 36.1898 51.8236C37.1703 51.8054 38.1509 51.7324 39.1314 51.5683C40.0938 51.4042 41.0017 51.0942 41.8733 50.6566C43.6166 49.763 45.0148 48.3589 45.9045 46.6083C46.3403 45.733 46.649 44.8213 46.8124 43.8548C46.9759 42.8883 47.0667 41.9036 47.0667 40.9189C47.0848 40.4266 47.0848 39.9342 47.0848 39.5513V19.2554C47.0848 18.836 47.0848 18.4166 47.0667 17.8877C47.0485 16.903 46.9759 15.9183 46.8124 14.9336C46.7761 14.7513 46.7398 14.5871 46.7035 14.4048C46.8306 14.4048 46.9395 14.423 47.0485 14.4413C47.1756 14.4777 47.2664 14.5324 47.3572 14.5871C47.3754 14.6601 47.3935 14.7513 47.4117 14.8242C47.5751 15.8271 47.6659 16.8483 47.684 17.8513C47.7022 18.3801 47.7022 18.8177 47.7022 19.2189C47.7022 19.766 47.7022 20.313 47.7022 20.8419V39.533H47.684ZM33.3026 40.3172C33.357 40.1895 33.4115 40.0436 33.4841 39.916L34.8097 42.2319L34.9005 42.396L35.8266 44.0007C36.0626 44.4201 36.4621 44.7119 36.9161 44.8395C37.3882 44.9671 37.8603 44.8942 38.278 44.6571C38.8409 44.3289 39.1677 43.7271 39.1677 43.0889C39.1677 42.7789 39.0769 42.4689 38.9317 42.1954L37.5335 39.7701L37.4427 39.606L36.3895 37.7824L35.2637 35.813C35.3181 35.6854 35.3726 35.5395 35.4453 35.4119C35.6268 34.9924 35.8084 34.573 35.99 34.1536C36.0082 34.1171 36.0263 34.0624 36.0445 34.026C36.099 33.9166 36.1534 33.7889 36.1898 33.6795H39.7125C39.9667 33.6795 40.2028 33.7342 40.4207 33.8071C40.8202 32.403 41.0199 30.926 41.0199 29.3942C41.0199 27.6436 40.7475 25.9477 40.2391 24.3795C40.2754 24.3066 40.3117 24.2154 40.348 24.1424C40.9109 25.8019 41.2015 27.5707 41.2015 29.4124C41.2015 30.9624 40.9836 32.476 40.5841 33.8983C41.2741 34.2266 41.7462 34.9377 41.7462 35.7401C41.7462 36.8707 40.8383 37.7824 39.7125 37.7824H38.9135C38.5685 38.366 38.1872 38.9313 37.7695 39.4783L39.2404 42.0313C39.422 42.3595 39.5309 42.7242 39.5309 43.1071C39.5309 43.873 39.1133 44.5842 38.4596 44.9671C38.1327 45.1677 37.7695 45.2589 37.3882 45.2589C37.2066 45.2589 37.0069 45.2407 36.8253 45.186C36.2805 45.0401 35.8084 44.6754 35.5179 44.183L34.61 42.6148C33.6476 43.3442 32.6125 43.9642 31.5049 44.4748C31.5412 44.4019 31.5775 44.3107 31.6138 44.2377C32.6489 43.7454 33.6294 43.1619 34.5373 42.4689L33.3026 40.3172ZM45.6866 29.3942C45.6866 25.3642 44.5608 21.5895 42.5815 18.3983C42.6178 18.3436 42.636 18.2707 42.6723 18.216C44.6879 21.4619 45.85 25.3095 45.85 29.4124C45.85 39.6424 38.6048 48.1948 28.999 50.2007C29.0353 50.1277 29.0535 50.073 29.0898 50.0001C38.5685 47.9577 45.6866 39.4966 45.6866 29.3942ZM51.0797 14.4595L50.4441 14.1495C50.2807 13.4748 49.8086 13.0007 49.4817 12.6724C49.3001 12.4901 49.0822 12.326 48.828 12.1983C48.4649 11.9977 48.0109 11.8519 47.4843 11.7607L47.4117 11.7424C47.0485 11.6877 46.6853 11.706 46.3222 11.7789C46.1224 11.8154 45.9227 11.8883 45.7411 11.9613C44.3066 12.5448 42.981 14.1495 41.5647 16.6113C41.5283 16.666 41.5102 16.7207 41.4739 16.7754C40.7294 18.0883 39.9486 19.6566 39.1314 21.4071C39.0951 21.4801 39.0769 21.5348 39.0406 21.6077C38.1327 23.5589 37.1521 25.7654 36.099 28.1907C35.4271 29.7042 34.7371 31.2907 33.9926 32.9136C33.9381 33.0413 33.8655 33.1689 33.811 33.2966V33.3148C33.3026 34.4272 32.6852 35.813 31.9952 37.3266C31.9225 37.4724 31.868 37.6183 31.7954 37.7642C30.7241 40.1166 29.5075 42.7789 28.3272 45.3319C28.2908 45.4048 28.2727 45.4595 28.2364 45.5324C27.4555 47.2466 26.6929 48.906 26.0029 50.383C25.9666 50.4377 25.9484 50.5107 25.9121 50.5654C25.7123 51.003 25.5126 51.4224 25.331 51.8236C25.2402 52.0242 25.1494 52.2248 25.0586 52.4254C24.7499 53.1001 24.4776 53.7019 24.2233 54.2307C23.606 55.5801 23.2246 56.4189 23.2065 56.4554C23.0067 56.9295 22.7162 57.2395 22.3893 57.3671C21.9172 57.5495 21.2272 57.4401 20.4827 57.0936L17.9224 55.8719C17.3776 55.6166 16.9781 55.1424 16.8147 54.5589C16.7784 54.4495 16.7602 54.3401 16.7421 54.2307C16.6694 53.7748 16.7602 53.2824 16.9963 52.8813C16.9963 52.8813 17.0871 52.7171 17.2687 52.4071C17.3595 52.243 17.4866 52.0424 17.6137 51.8054C17.9224 51.2766 18.34 50.5654 18.8303 49.7266C18.8666 49.6719 18.8848 49.6171 18.9211 49.5624C19.5929 48.3954 20.4101 47.0095 21.2817 45.5142C21.318 45.4595 21.3362 45.4048 21.3725 45.3501C22.7888 42.9066 24.3686 40.2077 25.8213 37.7277C25.8939 37.6183 25.9666 37.4907 26.021 37.3813C26.7292 36.1595 27.4011 35.0107 28.0003 33.9895C28.0729 33.8619 28.1456 33.7524 28.2 33.643C28.4361 33.2419 28.654 32.8771 28.8538 32.5307C28.8901 32.476 28.9264 32.403 28.9627 32.3483C28.999 32.2936 29.0172 32.2389 29.0535 32.1842C29.7254 31.0171 30.4335 29.7954 31.1236 28.5736C31.1962 28.4642 31.2507 28.3366 31.3233 28.2271C33.2481 24.7989 35.1547 21.2248 36.5711 18.1613C36.5892 18.1066 36.6256 18.0519 36.6437 17.9789C37.4245 16.283 38.0419 14.733 38.4051 13.4566C38.4232 13.4019 38.4414 13.3289 38.4596 13.2742V13.256C39.0769 10.9948 38.5867 8.77009 37.6606 7.05597C37.5335 6.83714 37.4064 6.61832 37.2793 6.41773C36.9706 5.96185 36.6437 5.56067 36.2987 5.2142C36.0626 4.97714 35.8447 4.75832 35.6087 4.5395C34.8642 3.84656 34.0652 3.28126 33.1028 2.75244C34.3921 2.78891 35.8266 2.89832 37.3519 3.11715C42.182 3.82832 45.7593 6.43597 47.0485 7.51185C47.4298 8.38715 48.5193 10.393 50.426 10.6666C51.0252 10.7577 51.7878 10.7213 52.4597 10.2654L53.0045 10.5207L51.0797 14.4595Z" fill="#0F4C59"/>
</g>
</svg>
