<svg width="55" height="54" viewBox="0 0 55 54" fill="none" xmlns="http://www.w3.org/2000/svg">
<g opacity="0.7">
<path d="M19.1552 17.3676C17.8347 17.3676 16.896 17.4791 16.4028 17.5907V26.4657C16.9915 26.625 17.7552 26.6569 18.7257 26.6569C22.3053 26.6569 24.485 24.9042 24.485 21.829C24.485 18.9291 22.4644 17.3676 19.1552 17.3676Z" fill="#0F4C59"/>
<path d="M42.9086 0H12.0914C5.40931 0 0 5.4174 0 12.1095V41.73C0 48.4221 5.40931 53.8395 12.0914 53.8395H42.9086C49.5907 53.8395 55 48.4221 55 41.73V12.1095C54.9841 5.4174 49.5748 0 42.9086 0ZM27.0148 27.5969C25.1056 29.5089 22.1145 30.4012 18.7417 30.4012C17.8507 30.4012 17.0234 30.3694 16.4189 30.2419V40.1366H11.6618V14.2446C13.3801 13.9259 15.7507 13.7028 18.9644 13.7028C22.4646 13.7028 25.026 14.4358 26.6966 15.838C28.2557 17.1286 29.258 19.184 29.258 21.6378C29.258 24.1393 28.4944 26.1948 27.0148 27.5969ZM43.3382 25.3821C42.9563 25.3025 42.5268 25.2228 41.9381 25.2228C39.6471 25.2228 38.0879 26.7046 37.6584 28.8397C37.5788 29.2699 37.4993 29.7798 37.4993 30.3216V40.1366H32.7264V27.2942C32.7264 24.7289 32.6945 22.8965 32.5673 21.1916H36.7197L36.8788 24.8085H37.0379C37.9766 22.1317 40.188 20.7614 42.2086 20.7614C42.6699 20.7614 42.9404 20.7933 43.3382 20.8729V25.3821Z" fill="#0F4C59"/>
</g>
</svg>
