<svg width="37" height="48" viewBox="0 0 37 48" fill="none" xmlns="http://www.w3.org/2000/svg">
<path opacity="0.7" d="M22.7026 0.293733L0.313233 22.7778C-0.104411 23.1973 -0.104411 23.872 0.313233 24.2914L6.26919 30.2726C6.68684 30.692 7.3587 30.692 7.77635 30.2726L36.1035 1.8255C36.7753 1.15079 36.3032 0.00196727 35.359 0.00196727H23.4471C23.1747 -0.016268 22.9023 0.0931443 22.7026 0.293733ZM36.1035 23.2155L17.6727 41.7243L10.9722 34.9955C10.5546 34.5761 10.5546 33.9014 10.9722 33.482L22.7026 21.702C22.9023 21.5014 23.1747 21.392 23.4471 21.392H35.359C36.3032 21.392 36.7753 22.5408 36.1035 23.2155ZM36.1035 45.2437L28.3317 37.439L17.6727 41.7243L22.6844 46.7573C22.8842 46.9578 23.1565 47.0673 23.4289 47.0673H35.3408C36.3032 47.0673 36.7753 45.9184 36.1035 45.2437Z" fill="#0F4C59"/>
</svg>
