<svg width="39" height="58" viewBox="0 0 39 58" fill="none" xmlns="http://www.w3.org/2000/svg">
<path opacity="0.7" d="M28.9021 19.2629C34.2271 19.2629 38.5361 14.955 38.5361 9.63145C38.5361 4.30789 34.2271 0 28.9021 0H9.63403C4.30904 0 0 4.30789 0 9.63145C0 14.955 4.30904 19.2629 9.63403 19.2629C4.30904 19.2629 0 23.5883 0 28.8944C0 34.2179 4.30904 38.5258 9.63403 38.5258C4.30904 38.5258 0 42.8337 0 48.1573C0 53.4808 4.30904 57.7887 9.63403 57.7887C14.959 57.7887 19.2681 53.4808 19.2681 48.1573V19.2629H28.9021ZM28.9021 19.2629C23.5771 19.2629 19.2681 23.5708 19.2681 28.8944C19.2681 34.2179 23.5771 38.5258 28.9021 38.5258C34.2271 38.5258 38.5361 34.2179 38.5361 28.8944C38.5186 23.5708 34.2096 19.2629 28.9021 19.2629Z" fill="#0F4C59"/>
</svg>
