<svg width="51" height="51" viewBox="0 0 51 51" fill="none" xmlns="http://www.w3.org/2000/svg">
<path opacity="0.7" d="M33.0009 31.5912C33.0009 36.3719 28.5167 36.2668 28.0438 36.2668H18.9177V27.0381H28.0438C32.8433 27.0557 33.0009 30.6456 33.0009 31.5912ZM27.3431 23.3432C27.4132 23.3432 31.6872 23.4482 31.6872 19.2454C31.6872 17.4942 31.2843 15.2002 27.3431 15.2002H18.9177V23.3432H27.3431ZM50.5874 8.42315V42.1333C50.5699 46.7739 46.8039 50.5389 42.162 50.5564H8.4254C3.78355 50.5389 0.0175164 46.7739 0 42.1333V8.42315C0.0175164 3.78253 3.78355 0.0175117 8.4254 0H42.1445C46.8039 0.0175117 50.5699 3.78253 50.5874 8.42315ZM38.1683 32.2566C38.1683 29.8225 37.4151 25.6722 32.6331 24.6565V24.569C35.2255 23.4657 36.8546 21.3818 36.8546 18.2823C36.8546 17.4942 37.0823 10.9624 28.0963 10.9624H13.7504V40.4521C28.219 40.4521 29.5502 40.6448 32.2127 39.8042C33.8242 39.3489 38.1683 37.8079 38.1683 32.2566Z" fill="#0F4C59"/>
</svg>
