<svg width="55" height="54" viewBox="0 0 55 54" fill="none" xmlns="http://www.w3.org/2000/svg">
<g opacity="0.7">
<path d="M42.9245 0H12.0437C5.3934 0 0 5.40148 0 12.0776V41.7618C0 48.438 5.3934 53.8395 12.0437 53.8395H42.9245C49.5907 53.8395 54.9841 48.438 54.9841 41.7618V12.0776C54.9841 5.40148 49.5907 0 42.9245 0ZM29.2421 21.7493C29.1944 24.0915 28.4625 26.0514 27.0466 27.3738C25.1851 29.2381 22.2577 30.1144 18.9485 30.1144C18.0735 30.1144 17.278 30.0825 16.6734 29.971V39.6427H12.0278V14.3083C12.0437 14.3083 12.0755 14.2924 12.1073 14.2924C13.7778 14.0056 16.0688 13.7825 19.1712 13.7825C20.8577 13.7825 22.3214 13.9578 23.5623 14.2924C24.851 14.6429 25.917 15.1687 26.7443 15.8698C28.2716 17.1286 29.258 19.1521 29.258 21.5422C29.258 21.6218 29.2421 21.6856 29.2421 21.7493ZM42.9563 34.2412C42.9563 34.3209 42.9245 34.4005 42.9245 34.4802C42.7972 37.6988 40.2039 40.0569 35.4151 40.0569C33.2355 40.0569 31.2786 39.5152 29.9103 38.7823C29.8785 38.7663 29.8467 38.7504 29.8149 38.7345H29.799L30.7058 35.3406C31.7718 35.9939 33.7923 36.679 35.4628 36.679C37.372 36.679 38.2789 35.9461 38.4061 34.8467C38.4061 34.767 38.422 34.7033 38.422 34.6077C38.422 33.3649 37.6584 32.7116 35.3833 31.9149C31.9309 30.7199 30.4194 28.8557 30.3081 26.8002C30.3081 26.7046 30.2763 26.609 30.2922 26.4975C30.2922 24.0915 31.7559 22.0998 34.2219 21.1916C35.1128 20.857 36.147 20.6658 37.2925 20.6658C38.5811 20.6658 39.7426 20.8889 40.6971 21.1916C41.2699 21.3669 41.7949 21.5581 42.1927 21.7812L42.0654 22.2432L41.2699 25.0953C40.4744 24.6333 38.9948 24.0278 37.3561 24.0278C35.6856 24.0278 34.7787 24.8245 34.7787 25.9717C34.7787 26.0992 34.7946 26.2107 34.8105 26.3222C34.9855 27.2623 35.8924 27.804 38.0084 28.5529C41.3494 29.7798 42.9086 31.4847 42.9563 34.2253C42.9563 34.2253 42.9563 34.2253 42.9563 34.2412Z" fill="#0F4C59"/>
<path d="M19.3621 17.3516C18.0734 17.3516 17.1665 17.4791 16.6733 17.5906V26.2744C17.2461 26.4178 17.9938 26.4656 18.9484 26.4656C22.3372 26.4656 24.4373 24.8404 24.5646 21.9883C24.5646 21.9086 24.5805 21.829 24.5805 21.7334C24.5805 18.8813 22.6077 17.3516 19.3621 17.3516Z" fill="#0F4C59"/>
</g>
</svg>
