<svg width="187" height="240" viewBox="0 0 187 240" fill="none" xmlns="http://www.w3.org/2000/svg">
<path d="M13.7941 66.2414C12.9826 64.4603 11.9216 62.1481 10.5796 59.2735C9.23765 56.3989 7.89569 53.4618 6.52253 50.4309C5.14936 47.4001 3.86983 44.5254 2.71512 41.8383C1.56041 39.1511 0.655374 37.0264 0 35.4954C0.0936248 35.1829 0.374499 34.7455 0.90504 34.2143C1.43558 33.6831 1.84129 33.4019 2.18458 33.3081C3.05841 33.1519 3.99466 33.6831 4.96212 34.9329C5.92957 36.1828 6.89703 37.8388 7.86449 39.901C8.83194 41.9633 9.83061 44.213 10.8917 46.6814C11.9528 49.1498 12.9202 51.4308 13.8565 53.5868C14.7927 55.7427 15.6353 57.4925 16.4468 58.9298C17.2582 60.3359 17.9448 61.0545 18.5065 61.0545C18.6001 61.0545 18.6625 61.0233 18.7562 60.992C18.8498 60.9608 18.9434 60.9295 19.1307 60.9295C19.1307 60.6796 19.2555 60.3046 19.5052 59.7734C19.7548 59.2423 19.9733 58.7111 20.1605 58.1487C20.3478 57.5862 20.5663 57.055 20.7535 56.5864C20.9408 56.0864 21.0968 55.774 21.1904 55.6177C21.284 55.4615 21.5337 54.9616 21.9706 54.1179C22.4075 53.2743 22.8757 52.3682 23.375 51.3995C23.8743 50.4309 24.3112 49.5248 24.717 48.6811C25.1227 47.8375 25.3723 47.3376 25.4347 47.1813C25.5908 46.8689 25.8717 46.1815 26.2149 45.1191C26.5894 44.0567 27.0264 42.8694 27.5569 41.4946C28.0874 40.1198 28.618 38.6824 29.1797 37.1201C29.7415 35.5891 30.272 34.1205 30.7402 32.7457C31.2395 31.3709 31.6452 30.1835 32.0197 29.1837C32.3942 28.1838 32.6439 27.4652 32.7999 27.059C33.3616 24.4655 34.2355 22.3721 35.3902 20.716C36.5449 19.06 37.5748 18.0601 38.4174 17.6852C39.26 17.3102 39.6969 17.7164 39.7593 18.8413C39.7906 19.9661 38.8855 21.9971 37.0442 24.903C36.8882 25.5591 36.5449 26.6215 36.0143 28.1213C35.4838 29.6211 34.9533 31.2147 34.3915 32.9019C33.8298 34.5892 33.268 36.1828 32.7687 37.6826C32.2381 39.1824 31.8949 40.2447 31.7388 40.9009C31.4267 41.8695 30.9898 43.2756 30.4593 45.0879C29.9287 46.9001 29.3358 48.9311 28.6492 51.1496C27.9626 53.368 27.2136 55.6177 26.4022 57.8674C25.5908 60.1172 24.717 62.2106 23.8119 64.1166C22.8757 66.0226 21.9394 67.5537 20.972 68.7723C20.0045 69.9909 19.037 70.5845 18.0696 70.5845C17.5703 70.5845 17.1333 70.4283 16.6652 70.1158C16.2283 69.8034 15.8226 69.4284 15.4481 69.0222C15.0736 68.616 14.7615 68.1474 14.4806 67.6162C14.1998 67.085 13.9501 66.5851 13.7941 66.2414Z" fill="#00434E"/>
<path d="M52.4925 53.3993C52.4925 51.3058 52.6173 49.2123 52.867 47.1501C53.1166 45.0879 53.3663 43.0257 53.6472 40.9634C53.928 38.9012 54.1777 36.839 54.4274 34.7767C54.677 32.7145 54.8019 30.5898 54.8019 28.4338C54.8019 27.9339 54.7082 27.4027 54.4898 26.809C54.2713 26.2153 53.772 25.9029 52.9606 25.9029C51.8995 25.9029 51.2129 25.9966 50.9008 26.1528C50.5887 26.3091 50.3703 26.5278 50.2455 26.7465C50.1206 26.9965 49.9334 27.2777 49.6525 27.5902C49.3716 27.9026 48.7475 28.2463 47.78 28.5588H47.187C45.5018 28.5588 44.6592 27.6839 44.6592 25.9029C44.6592 25.4029 45.1897 24.653 46.282 23.5907C47.3743 22.5283 48.6538 21.5597 50.0894 20.6223C51.525 19.6849 52.8982 18.8725 54.2089 18.1851C55.4885 17.4977 56.3311 17.279 56.7368 17.529C56.8928 17.529 57.1425 17.6852 57.4546 17.9664C57.7667 18.2476 58.1099 18.5601 58.422 18.935C58.7341 19.31 59.0462 19.6537 59.3271 19.9662C59.6079 20.2786 59.7952 20.5286 59.8576 20.6848C59.8576 20.841 59.8576 21.1847 59.8576 21.6534C59.8576 22.1534 59.8888 22.6533 59.92 23.2157C59.9512 23.7782 59.9824 24.3406 59.9824 24.8405C59.9824 25.3717 59.9824 25.7466 59.9824 25.9966C59.9824 28.3401 59.8264 30.6523 59.5143 32.9645C59.2022 35.2767 58.7965 37.5889 58.3596 39.9323C57.9227 42.2757 57.517 44.6192 57.2049 46.9626C56.8928 49.3061 56.7056 51.6495 56.7056 53.993C56.7056 54.3992 56.7368 55.2116 56.8304 56.3989C56.924 57.6175 57.0801 58.8673 57.3609 60.1484C57.6418 61.4295 58.0787 62.5856 58.6405 63.5855C59.2022 64.5853 59.9824 65.0853 60.9499 65.0853C62.8848 65.0853 64.3204 64.8353 65.3191 64.3041C66.2865 63.7729 67.1291 63.2105 67.8469 62.5544C68.5647 61.8982 69.3449 61.3358 70.2188 60.8046C71.0614 60.2734 72.2473 60.0234 73.7765 60.0234C73.7765 63.398 72.5282 65.9914 70.0315 67.7724C67.5348 69.5534 64.3516 70.4283 60.4818 70.4283C58.4532 70.4283 56.924 69.7722 55.8942 68.4911C54.8331 67.21 54.0529 65.6477 53.5223 63.8354C52.9918 62.0232 52.6797 60.1484 52.6173 58.2112C52.5549 56.2739 52.4925 54.7116 52.4925 53.3993ZM53.7096 2.78089C53.7096 1.906 53.8344 1.21859 54.1465 0.718656C54.4274 0.249967 55.0827 0 56.1126 0C56.8304 0 57.3297 0.249967 57.6418 0.781148C57.9227 1.31233 58.0475 1.96849 58.0475 2.78089C58.0475 3.49954 57.9227 4.12446 57.6418 4.65564C57.3609 5.18682 56.8616 5.43679 56.1126 5.43679C55.0515 5.43679 54.3962 5.21807 54.1153 4.78063C53.8344 4.34318 53.7096 3.68702 53.7096 2.78089Z" fill="#00434E"/>
<path d="M75.7424 68.1787C75.6488 67.71 76.0857 67.2413 76.9907 66.7414C77.927 66.2414 78.9569 65.6478 80.1116 64.9291C81.2663 64.2104 82.421 63.4293 83.5133 62.5232C84.6368 61.617 85.3234 60.6484 85.573 59.5548C84.6992 55.9615 84.0438 52.4932 83.6069 49.1811C83.17 45.8691 82.9203 42.5883 82.7955 39.3074C82.6707 36.0266 82.7019 32.6833 82.8579 29.3087C83.0139 25.9342 83.2324 22.3721 83.4821 18.5914C83.17 17.8727 83.1076 16.6541 83.2948 14.9668C83.4821 13.2796 83.8254 11.5923 84.3559 9.905C84.8864 8.21772 85.5418 6.68667 86.322 5.31185C87.1022 3.93703 87.9136 3.15588 88.7563 2.99965C89.6613 2.81218 90.4103 3.18713 91.0345 4.09326C91.6586 4.99939 92.158 6.06175 92.5637 7.34284C92.9694 8.59267 93.2815 9.905 93.4687 11.2486C93.656 12.5922 93.812 13.592 93.9681 14.2794C94.7483 18.1539 95.2476 21.9347 95.5285 25.6217C95.7781 29.3087 95.8093 32.9645 95.5285 36.5578C95.2476 40.1511 94.7795 43.7444 94.0929 47.3689C93.4063 50.9622 92.5325 54.6492 91.4714 58.4299C91.4714 58.8986 91.5026 59.2111 91.5338 59.3673C92.158 62.0857 93.3439 63.8355 95.0603 64.6166C96.808 65.3978 98.7117 65.6478 100.803 65.3665C102.894 65.0541 105.016 64.3979 107.138 63.3356C109.26 62.2732 110.977 61.3046 112.287 60.3984L113.504 61.1171C113.255 61.867 112.849 62.6794 112.287 63.5543C111.726 64.4292 111.07 65.2103 110.352 65.9602C109.635 66.7101 108.917 67.3038 108.199 67.8037C107.481 68.3037 106.888 68.5849 106.42 68.6786C104.454 69.0848 102.738 69.3348 101.271 69.4598C99.804 69.5847 98.4308 69.5535 97.1201 69.3348C95.8093 69.1161 94.4986 68.6786 93.1878 67.9912C91.8771 67.3038 90.3791 66.3352 88.7251 65.1166L87.82 65.304C87.2583 66.0539 86.7277 66.6476 86.2284 67.1163C85.7291 67.585 85.1049 67.9599 84.3871 68.2412C83.6693 68.5536 82.8267 68.8036 81.8904 69.0223C80.9542 69.241 79.8619 69.491 78.676 69.741C77.8334 69.8972 77.178 69.8972 76.7099 69.7097C76.2105 69.5222 75.8985 69.0223 75.7424 68.1787ZM89.6613 13.3733C88.569 15.7167 87.7576 18.2789 87.2583 21.0598C86.7589 23.8407 86.4781 26.6528 86.4156 29.4962C86.3532 32.3396 86.4469 35.2142 86.7277 38.0576C86.9774 40.9322 87.3831 43.6506 87.8824 46.2128C87.9136 46.369 88.0073 46.7127 88.1321 47.2127C88.2881 47.7438 88.413 48.275 88.5066 48.8374C88.6314 49.3999 88.7563 49.9623 88.8811 50.4622C89.0371 50.9934 89.0996 51.3371 89.1308 51.4621C89.1932 51.3684 89.318 51.1809 89.5053 50.9309C89.6925 50.6497 89.8173 50.4622 89.8798 50.3997L89.6613 49.2749C90.2855 46.5565 90.816 43.9318 91.2217 41.4009C91.6274 38.87 91.8771 36.3703 92.0019 33.8706C92.1268 31.371 92.0956 28.84 91.9083 26.2779C91.7211 23.7157 91.3153 20.9973 90.7536 18.1227C90.7224 17.9665 90.66 17.654 90.5663 17.1541C90.4727 16.6541 90.3791 16.1854 90.2855 15.6855C90.1918 15.1856 90.067 14.7169 89.9422 14.2794C89.7861 13.842 89.6925 13.5295 89.6613 13.3733Z" fill="#00434E"/>
<path d="M104.267 66.0542C104.173 65.5855 104.61 65.1168 105.515 64.6168C106.451 64.1169 107.481 63.5232 108.636 62.8046C109.791 62.0859 110.945 61.3048 112.038 60.3986C113.161 59.4925 113.848 58.5239 114.097 57.4303C113.224 53.837 112.568 50.3687 112.131 47.0566C111.694 43.7446 111.445 40.4637 111.32 37.1829C111.195 33.9021 111.226 30.5588 111.382 27.1842C111.538 23.8097 111.757 20.2476 112.006 16.4669C111.694 15.7482 111.632 14.5296 111.819 12.8423C112.006 11.1551 112.35 9.46777 112.88 7.78049C113.411 6.09321 114.066 4.56216 114.846 3.18734C115.627 1.81252 116.438 1.03137 117.281 0.87514C118.186 0.687664 118.935 1.06262 119.559 1.96875C120.183 2.87488 120.682 3.93724 121.088 5.21832C121.494 6.46816 121.806 7.78049 121.993 9.12407C122.18 10.4676 122.336 11.4675 122.492 12.1549C123.273 16.0294 123.772 19.8102 124.053 23.4972C124.303 27.1842 124.303 30.84 124.053 34.4333C123.772 38.0266 123.304 41.6198 122.617 45.2444C121.931 48.8376 121.057 52.5247 119.996 56.3054C119.996 56.7741 120.027 57.0866 120.058 57.2428C120.682 59.9612 121.868 61.711 123.585 62.4921C125.332 63.2733 127.236 63.5232 129.327 63.242C131.418 62.9296 133.54 62.2734 135.662 61.211C137.785 60.1487 139.501 59.18 140.812 58.2739L142.029 58.9926C141.779 59.7425 141.373 60.5549 140.812 61.4298C140.25 62.3046 139.595 63.0858 138.877 63.8357C138.159 64.5856 137.441 65.1793 136.723 65.6792C136.006 66.1791 135.413 66.4604 134.945 66.5541C132.978 66.9603 131.262 67.2103 129.795 67.3352C128.328 67.4602 126.955 67.429 125.645 67.2103C124.334 66.9915 123.023 66.5541 121.712 65.8667C120.402 65.1793 118.904 64.2106 117.249 62.9921L116.344 63.1795C115.783 63.9294 115.252 64.5231 114.753 64.9918C114.253 65.4605 113.629 65.8354 112.912 66.1166C112.194 66.4291 111.351 66.6791 110.415 66.8978C109.479 67.1165 108.386 67.3665 107.2 67.6164C106.358 67.7727 105.702 67.7727 105.234 67.5852C104.735 67.3977 104.423 66.8978 104.267 66.0542ZM118.186 11.2488C117.093 13.5922 116.282 16.1544 115.783 18.9353C115.283 21.7162 115.002 24.5283 114.94 27.3717C114.878 30.2151 114.971 33.0897 115.252 35.9331C115.502 38.8077 115.908 41.5261 116.407 44.0883C116.438 44.2445 116.532 44.5882 116.657 45.0881C116.813 45.6193 116.937 46.1505 117.031 46.7129C117.156 47.2753 117.281 47.8378 117.406 48.3377C117.562 48.8689 117.624 49.2126 117.655 49.3376C117.718 49.2438 117.842 49.0564 118.03 48.8064C118.217 48.5252 118.342 48.3377 118.404 48.2752L118.186 47.1504C118.81 44.432 119.34 41.8073 119.746 39.2764C120.152 36.7455 120.402 34.2458 120.526 31.7461C120.651 29.2464 120.62 26.7155 120.433 24.1534C120.245 21.5912 119.84 18.8728 119.278 15.9982C119.247 15.8419 119.184 15.5295 119.091 15.0295C118.997 14.5296 118.904 14.0609 118.81 13.561C118.716 13.0611 118.591 12.5924 118.467 12.1549C118.311 11.7175 118.217 11.405 118.186 11.2488Z" fill="#00434E"/>
<path d="M142.871 55.2117C142.31 55.5241 141.873 55.6179 141.529 55.4616C141.217 55.3054 140.999 55.0554 140.874 54.743C140.749 54.4305 140.656 54.0243 140.624 53.5869C140.593 53.1494 140.562 52.837 140.562 52.6807C140.562 51.056 140.749 50.0873 141.155 49.7124C141.561 49.3374 142.091 49.1187 142.715 48.9937C143.371 48.8687 144.057 48.6813 144.775 48.4625C145.493 48.2126 146.179 47.4627 146.835 46.1503C147.802 44.1194 148.676 42.0259 149.425 39.8074C150.205 37.589 151.142 35.4955 152.265 33.5582C153.389 31.621 154.824 30.0587 156.572 28.8401C158.32 27.6215 160.691 27.0278 163.781 27.0278C164.28 27.0278 164.811 27.0591 165.404 27.1528C165.997 27.2466 166.559 27.3715 167.089 27.5903C167.62 27.7777 168.057 28.1214 168.431 28.5589C168.806 28.9963 168.962 29.59 168.962 30.3087C168.962 31.9959 168.525 33.527 167.682 34.8393C166.839 36.1516 165.778 37.3702 164.53 38.4638C163.282 39.5575 161.94 40.5886 160.473 41.5572C159.037 42.5258 157.695 43.4632 156.478 44.3381C155.261 45.213 154.231 46.1503 153.389 47.119C152.546 48.0876 152.109 49.1499 152.109 50.2748V61.8983C152.109 62.7732 152.452 63.4918 153.139 64.023C153.826 64.5542 154.606 64.9604 155.511 65.3041C156.385 65.6166 157.321 65.8665 158.288 66.0227C159.256 66.179 159.974 66.2727 160.473 66.2727C162.408 66.2727 164.343 65.929 166.278 65.2416C168.213 64.5542 170.085 63.6793 171.895 62.6482C173.705 61.5858 175.422 60.461 177.044 59.2111C178.667 57.9613 180.197 56.774 181.632 55.6491C182.131 55.2429 182.537 54.8367 182.912 54.368C183.286 53.9306 183.629 53.4931 184.004 53.0869C184.378 52.6807 184.784 52.337 185.221 52.0558C185.658 51.7746 186.251 51.5559 186.969 51.3997C186.969 51.4934 186.969 51.6496 186.969 51.8996C186.969 52.1496 186.969 52.337 186.969 52.4933C186.969 53.1494 186.906 53.7119 186.781 54.1805C186.657 54.6805 186.345 55.1492 185.876 55.6491C184.098 57.6801 182.194 59.5548 180.197 61.3359C178.168 63.1169 176.046 64.6792 173.799 66.054C171.552 67.4288 169.149 68.5224 166.652 69.3348C164.155 70.1472 161.503 70.5534 158.663 70.5534C155.823 70.5534 153.669 70.1472 152.14 69.3348C150.611 68.5224 149.425 67.3663 148.583 65.8353C147.74 64.3042 147.147 62.492 146.835 60.3985C146.523 58.305 146.148 56.0241 145.743 53.6181L142.871 55.2117ZM158.476 36.4641C158.476 36.3079 158.32 36.3391 158.039 36.5266C157.758 36.7141 157.446 36.9953 157.071 37.3077C156.697 37.6202 156.447 37.9327 156.291 38.2139C156.135 38.4951 156.135 38.6513 156.291 38.6513C156.697 38.7451 157.165 38.4951 157.758 37.9327C158.288 37.339 158.538 36.8703 158.476 36.4641Z" fill="#00434E"/>
<path d="M1.09229 227.783C1.09229 227.127 1.18591 225.846 1.40437 223.908C1.59162 221.971 1.87249 219.784 2.24699 217.315C2.62149 214.847 3.05841 212.285 3.65136 209.566C4.21311 206.848 4.9309 204.38 5.77353 202.13C6.61615 199.88 7.5524 198.005 8.61348 196.568C9.67456 195.131 10.8605 194.381 12.2336 194.381C13.9189 194.381 15.2608 195.037 16.2283 196.318C17.1958 197.599 17.9448 199.13 18.4753 200.849C19.0058 202.599 19.3491 204.348 19.5676 206.192C19.7548 208.004 19.8797 209.441 19.8797 210.504C18.1944 210.504 17.1021 210.223 16.6028 209.66C16.1035 209.098 15.7602 208.41 15.5729 207.598C15.3857 206.786 15.136 205.973 14.9176 205.129C14.6679 204.286 13.9813 203.536 12.8578 202.88C11.0165 204.005 9.58094 205.598 8.61348 207.66C7.61481 209.66 6.86582 211.91 6.36648 214.347C5.86715 216.784 5.52386 219.159 5.46144 221.502C5.36782 223.846 5.33661 225.939 5.33661 227.814C5.33661 230.064 5.77353 231.97 6.61615 233.501C7.45877 235.032 9.17523 235.813 11.7655 235.813C13.7941 235.813 15.729 235.407 17.5703 234.594C19.4115 233.782 21.1904 232.751 22.9069 231.501C24.5921 230.251 26.1837 228.876 27.6817 227.377C29.1797 225.877 30.5529 224.439 31.8636 223.065H34.1731C34.0794 223.627 34.017 224.002 33.9234 224.158C32.7999 226.502 31.3955 228.626 29.6791 230.564C27.9938 232.501 26.1213 234.157 24.124 235.532C22.0955 236.907 19.9109 238 17.539 238.813C15.1672 239.625 12.6706 240.031 10.1115 240.031C8.27019 240.031 6.74098 239.719 5.58628 239.125C4.40036 238.531 3.49532 237.656 2.87116 236.594C2.24699 235.532 1.77887 234.219 1.5292 232.72C1.21712 231.189 1.09229 229.564 1.09229 227.783Z" fill="#00434E"/>
<path d="M41.3509 235.782C41.3509 235.532 41.3509 235.126 41.3509 234.501C41.3509 233.876 41.3197 233.251 41.2885 232.564C41.2573 231.876 41.2261 231.22 41.2261 230.626C41.2261 230.033 41.2261 229.564 41.2261 229.22C41.2261 226.971 41.3821 224.533 41.7254 221.94C42.0375 219.346 42.5368 216.847 43.161 214.378C43.7852 211.91 44.659 209.535 45.7513 207.223C46.8436 204.911 48.2167 202.911 49.8708 201.161C51.5248 199.412 53.4285 198.037 55.6131 196.974C57.7977 195.912 60.2943 195.412 63.1031 195.412C64.9444 195.412 66.3799 195.943 67.3474 197.037C68.3149 198.131 68.9702 199.474 69.3447 201.099C69.7192 202.724 69.9065 204.411 69.9377 206.192C69.9689 207.973 70.0001 209.535 70.0001 210.91C70.0001 214.066 69.688 217.347 69.0327 220.784C68.3773 224.221 67.3474 227.345 65.8806 230.158C64.445 232.97 62.4477 235.313 59.8886 237.188C57.3608 239.031 54.1775 239.969 50.4013 239.969C49.2778 239.969 48.3104 239.938 47.4989 239.844C46.6875 239.75 45.9697 239.531 45.3144 239.188C44.659 238.813 44.0348 238.375 43.3794 237.844C42.7553 237.375 42.0999 236.657 41.3509 235.782ZM45.5952 233.595C46.313 234.313 47.1556 234.688 48.1231 234.688C49.0906 234.688 50.0268 234.688 50.9006 234.688C53.959 234.688 56.4557 233.907 58.3906 232.314C60.3255 230.72 61.8235 228.783 62.9158 226.439C64.0081 224.096 64.7571 221.534 65.2252 218.753C65.6622 215.972 65.8806 213.379 65.8806 210.941C65.8806 209.816 65.9118 208.567 65.943 207.254C65.9742 205.911 65.8494 204.661 65.5685 203.505C65.2877 202.349 64.7883 201.38 64.0393 200.599C63.3215 199.818 62.2292 199.443 60.7625 199.443C60.7625 200.724 60.6064 201.693 60.2631 202.349C59.951 203.005 59.5141 203.442 58.9836 203.692C58.453 203.942 57.8601 204.067 57.1735 204.13C56.4869 204.161 55.7691 204.317 54.9889 204.567C54.2087 204.817 53.4597 205.161 52.7419 205.661C52.0241 206.129 51.3688 207.004 50.807 208.192C49.5275 211.816 48.2791 215.316 47.1244 218.659C45.9385 222.002 45.3768 225.533 45.3768 229.251C45.3768 229.501 45.3768 229.783 45.3768 230.158C45.3768 230.533 45.408 230.939 45.4392 231.439C45.4704 231.939 45.5016 232.345 45.5016 232.72C45.5016 233.095 45.5952 233.345 45.5952 233.595Z" fill="#00434E"/>
<path d="M90.2858 235.782C89.4743 234.001 88.4133 231.689 87.0713 228.814C85.7293 225.939 84.3874 223.002 83.0142 219.971C81.6411 216.941 80.3615 214.066 79.2068 211.379C78.0209 208.66 77.1159 206.567 76.4917 205.036C76.5853 204.723 76.8662 204.286 77.3967 203.755C77.9273 203.224 78.333 202.942 78.6763 202.849C79.5501 202.692 80.4864 203.224 81.4538 204.473C82.4213 205.723 83.3887 207.379 84.3562 209.442C85.3236 211.504 86.3223 213.753 87.3834 216.222C88.4445 218.69 89.4119 220.971 90.3482 223.127C91.2844 225.283 92.127 227.033 92.9385 228.47C93.7499 229.876 94.4365 230.595 94.9982 230.595C95.0918 230.595 95.1542 230.564 95.2479 230.533C95.3415 230.501 95.4351 230.47 95.6224 230.47C95.6224 230.22 95.7472 229.845 95.9969 229.314C96.2465 228.783 96.465 228.252 96.6522 227.689C96.8395 227.127 97.058 226.596 97.2452 226.127C97.4325 225.627 97.5885 225.314 97.6821 225.158C97.7757 225.002 98.0254 224.502 98.4623 223.658C98.8992 222.815 99.3674 221.909 99.8667 220.94C100.366 219.971 100.803 219.065 101.209 218.222C101.614 217.378 101.864 216.878 101.926 216.722C102.082 216.409 102.363 215.722 102.707 214.66C103.081 213.597 103.518 212.41 104.049 211.035C104.579 209.66 105.11 208.223 105.671 206.661C106.233 205.13 106.764 203.661 107.232 202.286C107.731 200.911 108.137 199.724 108.511 198.724C108.886 197.724 109.136 197.006 109.292 196.599C109.853 194.006 110.727 191.913 111.882 190.257C113.037 188.601 114.066 187.601 114.909 187.226C115.752 186.851 116.189 187.257 116.251 188.382C116.282 189.507 115.377 191.538 113.536 194.444C113.38 195.1 113.037 196.162 112.506 197.662C111.976 199.162 111.445 200.755 110.883 202.442C110.321 204.13 109.76 205.723 109.26 207.223C108.73 208.723 108.387 209.785 108.231 210.441C107.918 211.41 107.482 212.816 106.951 214.628C106.42 216.441 105.827 218.472 105.141 220.69C104.454 222.909 103.705 225.158 102.894 227.408C102.082 229.658 101.209 231.751 100.304 233.657C99.3674 235.563 98.4311 237.094 97.4637 238.313C96.4962 239.531 95.5287 240.125 94.5613 240.125C94.062 240.125 93.625 239.969 93.1569 239.656C92.72 239.344 92.3143 238.969 91.9398 238.563C91.5653 238.157 91.2532 237.688 90.9723 237.157C90.6915 236.626 90.4418 236.094 90.2858 235.782Z" fill="#00434E"/>
<path d="M140.905 225.127C139.688 226.564 138.315 228.127 136.723 229.72C135.163 231.345 133.446 232.845 131.636 234.188C129.826 235.563 127.923 236.719 125.956 237.625C123.99 238.563 121.931 239.031 119.84 239.031C115.564 239.031 113.442 236.969 113.442 232.845C113.442 231.157 114.16 228.908 115.564 226.127C116.968 223.346 118.81 220.409 121.057 217.347C123.304 214.285 125.8 211.316 128.547 208.442C131.293 205.567 134.039 203.192 136.786 201.286C139.532 199.38 142.06 198.193 144.338 197.724C146.648 197.224 148.52 197.912 149.956 199.787C149.956 201.974 149.8 204.161 149.456 206.317C149.144 208.504 148.801 210.66 148.489 212.785C148.177 214.91 147.833 217.034 147.521 219.128C147.209 221.221 147.022 223.377 147.022 225.533C147.022 226.033 147.084 226.752 147.209 227.783C147.334 228.783 147.521 229.814 147.802 230.814C148.083 231.814 148.458 232.72 148.957 233.47C149.456 234.251 150.08 234.626 150.892 234.626C152.827 234.626 154.418 234.376 155.667 233.907C156.915 233.438 158.007 232.845 158.944 232.157C159.88 231.47 160.66 230.689 161.347 229.783C162.033 228.876 162.751 228.002 163.531 227.127C164.311 226.252 165.154 225.377 166.121 224.596C167.089 223.783 168.337 223.158 169.866 222.659C169.866 223.158 169.866 223.471 169.866 223.627C169.866 225.658 169.274 227.658 168.056 229.626C166.839 231.595 165.31 233.376 163.469 234.907C161.627 236.438 159.537 237.688 157.227 238.594C154.918 239.531 152.702 240 150.517 240C148.676 240 147.178 239.469 146.055 238.438C144.931 237.375 144.026 236.126 143.339 234.688C142.653 233.22 142.154 231.626 141.841 229.908C141.561 228.158 141.248 226.564 140.905 225.127ZM143.09 209.254C143.901 206.598 144.213 204.786 143.995 203.817C143.776 202.849 143.215 202.474 142.247 202.661C141.28 202.849 140.031 203.536 138.502 204.723C136.973 205.911 135.319 207.317 133.54 208.973C131.761 210.629 129.982 212.472 128.203 214.472C126.425 216.503 124.771 218.409 123.241 220.221C121.712 222.034 120.464 223.658 119.496 225.127C118.529 226.564 117.936 227.627 117.686 228.283C117.187 230.126 117.156 231.564 117.499 232.532C117.842 233.501 118.435 234.157 119.184 234.532C119.964 234.907 120.807 234.969 121.712 234.719C122.648 234.47 123.429 234.126 124.084 233.626C125.457 232.407 127.174 230.782 129.296 228.72C131.387 226.658 133.415 224.471 135.413 222.127C137.379 219.784 139.095 217.472 140.562 215.16C142.029 212.847 142.84 210.879 143.09 209.254Z" fill="#00434E"/>
<path d="M15.854 144.919C23.2816 124.296 69.8131 120.547 87.477 119.047C116.875 116.547 151.766 119.672 171.646 144.2C173.862 146.731 177.357 143.075 175.297 140.544C173.456 138.451 171.615 136.357 169.773 134.264C169.399 133.826 168.962 133.639 168.525 133.545C144.619 111.985 107.013 110.954 76.6165 115.11C56.8305 117.828 18.9436 121.047 10.8295 143.544C9.73719 146.7 14.7305 148.043 15.854 144.919Z" fill="#00434E"/>
<path d="M172.052 146.793C161.659 169.665 114.535 171.634 93.1259 173.134C64.3207 175.165 34.2671 171.915 14.6683 148.262C13.0767 146.356 10.3616 149.106 11.922 151.012C33.3933 176.946 67.2855 179.383 98.6186 176.571C115.253 175.071 132.074 172.353 148.146 167.791C159.662 164.541 170.148 160.167 175.36 148.762C176.39 146.512 173.082 144.512 172.052 146.793Z" fill="#00434E"/>
<path d="M86.1349 105.705C85.7292 108.986 90.9097 108.955 91.2842 105.705C92.2517 97.5498 92.595 89.1134 89.5678 81.3331C88.3819 78.271 83.3886 79.6146 84.6057 82.7079C87.4768 90.082 87.0399 97.9872 86.1349 105.705Z" fill="#00434E"/>
<path d="M115.877 106.205C118.623 101.206 120.589 95.8938 121.681 90.3008C122.087 88.2698 118.966 87.3949 118.56 89.4572C117.531 94.8002 115.721 99.8308 113.099 104.58C112.1 106.392 114.878 108.049 115.877 106.205Z" fill="#00434E"/>
<path d="M139.876 112.517C143.527 109.205 146.804 104.674 146.211 99.5183C145.836 96.2687 140.687 96.2062 141.062 99.5183C141.499 103.424 138.939 106.392 136.224 108.892C133.759 111.111 137.41 114.735 139.876 112.517Z" fill="#00434E"/>
<path d="M159.412 120.172C164.312 117.672 167.901 111.329 165.748 105.924C164.999 104.018 161.878 104.861 162.627 106.767C164.281 110.892 161.503 115.485 157.789 117.36C155.917 118.328 157.54 121.109 159.412 120.172Z" fill="#00434E"/>
<path d="M69.5637 106.58C67.4415 101.987 65.0073 97.4248 64.3207 92.363C63.8838 89.1134 58.7344 89.0822 59.1713 92.363C59.9827 98.4559 62.573 103.674 65.1009 109.205C66.474 112.204 70.9368 109.579 69.5637 106.58Z" fill="#00434E"/>
<path d="M49.3095 111.236C46.4695 107.393 42.787 102.518 42.2252 97.6125C41.8507 94.363 36.6701 94.3005 37.0758 97.6125C37.7936 103.612 41.3514 109.08 44.8779 113.829C46.8128 116.485 51.3068 113.923 49.3095 111.236Z" fill="#00434E"/>
<path d="M29.4611 120.172C31.3023 121.109 32.9252 118.328 31.0839 117.391C27.3701 115.485 24.5926 110.923 26.2466 106.799C27.0268 104.861 23.906 104.049 23.1258 105.955C20.9412 111.329 24.5614 117.672 29.4611 120.172Z" fill="#00434E"/>
<path d="M104.017 126.452C103.736 126.077 103.362 125.765 102.769 125.609C98.1501 124.265 92.7823 124.328 87.8825 125.702C87.1336 125.421 86.1973 125.39 85.2611 125.827C77.1157 129.702 66.3176 139.388 71.9351 149.449C74.5566 154.167 80.3301 157.042 86.2909 158.729C88.6628 159.729 91.1906 160.26 93.6873 160.323C94.9044 160.51 96.0903 160.667 97.1826 160.76C104.86 161.541 113.099 158.792 114.722 150.387C116.438 141.513 112.756 130.421 104.267 126.484C104.204 126.484 104.111 126.452 104.017 126.452ZM97.1514 129.889C97.4323 130.171 97.8068 130.389 98.3373 130.483C101.177 130.952 103.643 132.389 105.422 134.357C106.732 136.17 107.731 138.263 108.418 140.419C108.823 142.794 108.542 145.356 107.263 147.825C102.55 156.948 89.3493 157.573 82.702 150.23C71.9975 138.294 85.6355 129.389 97.1514 129.889Z" fill="#00434E"/>
</svg>
