<svg width="167" height="214" viewBox="0 0 167 214" fill="none" xmlns="http://www.w3.org/2000/svg">
<g clip-path="url(#clip0)">
<path d="M12.3188 59.0652C11.5941 57.4771 10.6465 55.4154 9.4481 52.8522C8.24967 50.289 7.05124 47.6701 5.82493 44.9676C4.59863 42.2651 3.45594 39.7019 2.42473 37.3058C1.39352 34.9098 0.58528 33.0152 0 31.65C0.0836115 31.3714 0.334446 30.9814 0.808244 30.5077C1.28204 30.0341 1.64436 29.7834 1.95093 29.6998C2.73131 29.5605 3.56742 30.0341 4.43141 31.1485C5.29539 32.263 6.15938 33.7396 7.02336 35.5784C7.88735 37.4173 8.77921 39.4232 9.7268 41.6243C10.6744 43.8253 11.5384 45.8591 12.3745 47.7815C13.2106 49.7039 13.9631 51.2642 14.6878 52.5458C15.4124 53.7995 16.0255 54.4403 16.5272 54.4403C16.6108 54.4403 16.6666 54.4124 16.7502 54.3846C16.8338 54.3567 16.9174 54.3289 17.0846 54.3289C17.0846 54.106 17.1961 53.7716 17.4191 53.298C17.642 52.8244 17.8371 52.3507 18.0043 51.8492C18.1716 51.3477 18.3667 50.8741 18.5339 50.4562C18.7011 50.0104 18.8405 49.7318 18.9241 49.5925C19.0077 49.4532 19.2306 49.0074 19.6208 48.2552C20.011 47.5029 20.4291 46.695 20.875 45.8313C21.3209 44.9676 21.7111 44.1596 22.0734 43.4074C22.4357 42.6551 22.6587 42.2093 22.7145 42.07C22.8538 41.7914 23.1046 41.1785 23.4112 40.2312C23.7457 39.2839 24.1358 38.2252 24.6096 36.9993C25.0834 35.7735 25.5572 34.4919 26.0589 33.0988C26.5606 31.7336 27.0344 30.4242 27.4524 29.1983C27.8984 27.9724 28.2607 26.9137 28.5951 26.0221C28.9296 25.1306 29.1525 24.4898 29.2919 24.1276C29.7936 21.8151 30.5739 19.9484 31.6051 18.4718C32.6363 16.9952 33.5561 16.1036 34.3086 15.7693C35.0611 15.435 35.4513 15.7972 35.507 16.8002C35.5349 17.8031 34.7266 19.6141 33.0823 22.2052C32.9429 22.7903 32.6363 23.7375 32.1626 25.0749C31.6888 26.4122 31.215 27.8331 30.7133 29.3376C30.2116 30.8421 29.7099 32.263 29.264 33.6003C28.7902 34.9376 28.4836 35.8849 28.3443 36.47C28.0656 37.3337 27.6754 38.5874 27.2016 40.2034C26.7278 41.8193 26.1983 43.6303 25.5851 45.6084C24.972 47.5865 24.3031 49.5925 23.5784 51.5985C22.8538 53.6045 22.0734 55.4712 21.2652 57.1707C20.4291 58.8702 19.593 60.2354 18.729 61.322C17.865 62.4085 17.001 62.9379 16.137 62.9379C15.6911 62.9379 15.3009 62.7986 14.8828 62.52C14.4927 62.2414 14.1303 61.907 13.7959 61.5448C13.4614 61.1827 13.1827 60.7647 12.9319 60.2911C12.6811 59.8175 12.4581 59.3717 12.3188 59.0652Z" fill="white"/>
<path d="M46.8782 47.6144C46.8782 45.7477 46.9897 43.881 47.2126 42.0422C47.4356 40.2034 47.6586 38.3645 47.9094 36.5257C48.1602 34.6869 48.3832 32.8481 48.6062 31.0092C48.8291 29.1704 48.9406 27.2759 48.9406 25.3535C48.9406 24.9077 48.857 24.4341 48.6619 23.9047C48.4668 23.3753 48.0209 23.0967 47.2962 23.0967C46.3486 23.0967 45.7355 23.1803 45.4568 23.3196C45.1781 23.4589 44.983 23.654 44.8715 23.849C44.76 24.0719 44.5928 24.3226 44.342 24.6012C44.0911 24.8798 43.5337 25.1863 42.6697 25.4649H42.1402C40.6352 25.4649 39.8827 24.6848 39.8827 23.0967C39.8827 22.651 40.3565 21.9823 41.332 21.035C42.3074 20.0877 43.4501 19.2241 44.7322 18.3882C46.0142 17.5524 47.2405 16.828 48.4111 16.2151C49.5537 15.6021 50.3063 15.4071 50.6686 15.63C50.8079 15.63 51.0309 15.7693 51.3096 16.0201C51.5883 16.2708 51.8949 16.5494 52.1736 16.8837C52.4523 17.2181 52.731 17.5245 52.9818 17.8032C53.2327 18.0818 53.3999 18.3046 53.4556 18.444C53.4556 18.5833 53.4556 18.8897 53.4556 19.3076C53.4556 19.7534 53.4835 20.1992 53.5114 20.7007C53.5392 21.2022 53.5671 21.7037 53.5671 22.1495C53.5671 22.6231 53.5671 22.9574 53.5671 23.1803C53.5671 25.2699 53.4277 27.3316 53.149 29.3933C52.8703 31.455 52.508 33.5167 52.1178 35.6063C51.7276 37.6959 51.3653 39.7854 51.0866 41.875C50.8079 43.9646 50.6407 46.0542 50.6407 48.1437C50.6407 48.5059 50.6686 49.2303 50.7522 50.289C50.8358 51.3756 50.9751 52.49 51.226 53.6323C51.4768 54.7746 51.867 55.8055 52.3687 56.697C52.8703 57.5886 53.5671 58.0344 54.4311 58.0344C56.1591 58.0344 57.4411 57.8115 58.333 57.3378C59.1969 56.8642 59.9494 56.3627 60.5905 55.7776C61.2315 55.1926 61.9282 54.6911 62.7086 54.2174C63.4611 53.7438 64.5202 53.5209 65.8858 53.5209C65.8858 56.5299 64.771 58.8423 62.5414 60.4304C60.3118 62.0185 57.469 62.7986 54.013 62.7986C52.2014 62.7986 50.8358 62.2135 49.9161 61.0712C48.9685 59.9289 48.2717 58.5359 47.7979 56.9199C47.3241 55.304 47.0454 53.6323 46.9897 51.905C46.9339 50.1776 46.8782 48.7845 46.8782 47.6144ZM47.9651 2.47962C47.9651 1.69952 48.0766 1.08658 48.3553 0.640802C48.6062 0.222888 49.1914 0 50.1112 0C50.7522 0 51.1981 0.222888 51.4768 0.696524C51.7276 1.17016 51.8391 1.75524 51.8391 2.47962C51.8391 3.12043 51.7276 3.67765 51.4768 4.15128C51.226 4.62492 50.78 4.84781 50.1112 4.84781C49.1636 4.84781 48.5783 4.65278 48.3274 4.26273C48.0766 3.87267 47.9651 3.28759 47.9651 2.47962Z" fill="white"/>
<path d="M67.6417 60.7926C67.5581 60.3747 67.9483 59.9568 68.7565 59.511C69.5927 59.0652 70.5124 58.5359 71.5436 57.8951C72.5748 57.2543 73.606 56.5577 74.5815 55.7498C75.5848 54.9418 76.198 54.0781 76.4209 53.103C75.6406 49.899 75.0553 46.8064 74.6651 43.8531C74.2749 40.8999 74.0519 37.9745 73.9405 35.0491C73.829 32.1237 73.8568 29.1426 73.9962 26.1336C74.1355 23.1246 74.3306 19.9484 74.5536 16.5773C74.2749 15.9365 74.2192 14.8499 74.3864 13.3454C74.5536 11.8409 74.8602 10.3364 75.334 8.83192C75.8078 7.32743 76.3931 5.96224 77.0898 4.73636C77.7866 3.51048 78.5112 2.81395 79.2637 2.67465C80.072 2.50748 80.7409 2.84182 81.2983 3.64978C81.8557 4.45775 82.3016 5.40502 82.6639 6.54732C83.0262 7.66176 83.3049 8.83192 83.4722 10.0299C83.6394 11.228 83.7787 12.1195 83.9181 12.7325C84.6149 16.1872 85.0608 19.5584 85.3116 22.846C85.5346 26.1336 85.5624 29.3933 85.3116 32.5973C85.0608 35.8013 84.6427 39.0053 84.0296 42.2372C83.4164 45.4412 82.636 48.7288 81.6884 52.1C81.6884 52.5179 81.7163 52.7965 81.7442 52.9358C82.3016 55.3597 83.3607 56.9199 84.8936 57.6165C86.4543 58.313 88.1544 58.5359 90.0217 58.2851C91.889 58.0065 93.7842 57.4214 95.6794 56.4742C97.5746 55.5269 99.1075 54.6632 100.278 53.8552L101.365 54.496C101.142 55.1647 100.78 55.8891 100.278 56.6692C99.7764 57.4493 99.1911 58.1458 98.5501 58.8145C97.9091 59.4831 97.268 60.0125 96.627 60.4583C95.986 60.9041 95.4565 61.1548 95.0384 61.2384C93.2826 61.6006 91.7497 61.8235 90.4398 61.9349C89.1299 62.0463 87.9036 62.0185 86.733 61.8235C85.5624 61.6284 84.3919 61.2384 83.2213 60.6254C82.0508 60.0125 80.713 59.1488 79.2358 58.0622L78.4276 58.2294C77.9259 58.8981 77.4521 59.4274 77.0062 59.8453C76.5603 60.2632 76.0029 60.5976 75.3618 60.8483C74.7208 61.1269 73.9683 61.3498 73.1322 61.5449C72.2961 61.7399 71.3206 61.9628 70.2615 62.1857C69.509 62.325 68.9238 62.325 68.5057 62.1578C68.0598 61.9906 67.7811 61.5449 67.6417 60.7926ZM80.072 11.9245C79.0965 14.0141 78.3719 16.2987 77.9259 18.7783C77.48 21.2579 77.2292 23.7654 77.1734 26.3007C77.1177 28.8361 77.2013 31.3993 77.4521 33.9346C77.6751 36.4979 78.0374 38.9218 78.4833 41.2064C78.5112 41.3457 78.5948 41.6521 78.7063 42.0979C78.8457 42.5715 78.9571 43.0452 79.0408 43.5467C79.1522 44.0482 79.2637 44.5497 79.3752 44.9954C79.5145 45.4691 79.5703 45.7756 79.5982 45.887C79.6539 45.8034 79.7654 45.6362 79.9326 45.4134C80.0998 45.1626 80.2113 44.9954 80.267 44.9397L80.072 43.9367C80.6294 41.5128 81.1032 39.1725 81.4655 36.9158C81.8278 34.659 82.0508 32.4302 82.1622 30.2013C82.2737 27.9724 82.2459 25.7157 82.0786 23.4311C81.9114 21.1465 81.5491 18.7226 81.0474 16.1594C81.0196 16.02 80.9638 15.7414 80.8802 15.2957C80.7966 14.8499 80.713 14.432 80.6294 13.9862C80.5458 13.5404 80.4343 13.1225 80.3228 12.7325C80.1834 12.3424 80.0998 12.0638 80.072 11.9245Z" fill="white"/>
<path d="M93.1154 58.8981C93.0317 58.4801 93.4219 58.0622 94.2302 57.6165C95.0663 57.1707 95.986 56.6413 97.0172 56.0005C98.0484 55.3597 99.0796 54.6632 100.055 53.8552C101.058 53.0473 101.672 52.1836 101.895 51.2084C101.114 48.0044 100.529 44.9119 100.139 41.9586C99.7485 39.0053 99.5256 36.0799 99.4141 33.1545C99.3026 30.2291 99.3305 27.248 99.4698 24.239C99.6092 21.2301 99.8043 18.0539 100.027 14.6827C99.7485 14.0419 99.6928 12.9553 99.86 11.4509C100.027 9.94637 100.334 8.44187 100.808 6.93738C101.281 5.43289 101.867 4.0677 102.563 2.84182C103.26 1.61594 103.985 0.919416 104.737 0.780111C105.546 0.612945 106.214 0.947277 106.772 1.75524C107.329 2.56321 107.775 3.51048 108.138 4.65278C108.5 5.76722 108.779 6.93738 108.946 8.1354C109.113 9.33342 109.252 10.225 109.392 10.8379C110.088 14.2927 110.534 17.6639 110.785 20.9514C111.008 24.239 111.008 27.4988 110.785 30.7028C110.534 33.9068 110.116 37.1108 109.503 40.3427C108.89 43.5467 108.11 46.8343 107.162 50.2054C107.162 50.6234 107.19 50.902 107.218 51.0413C107.775 53.4652 108.834 55.0254 110.367 55.7219C111.928 56.4184 113.628 56.6413 115.495 56.3906C117.363 56.112 119.258 55.5269 121.153 54.5796C123.048 53.6323 124.581 52.7687 125.752 51.9607L126.839 52.6015C126.616 53.2701 126.253 53.9945 125.752 54.7746C125.25 55.5547 124.665 56.2513 124.024 56.9199C123.383 57.5886 122.742 58.118 122.101 58.5637C121.46 59.0095 120.93 59.2603 120.512 59.3438C118.756 59.706 117.223 59.9289 115.913 60.0404C114.604 60.1518 113.377 60.1239 112.207 59.9289C111.036 59.7339 109.866 59.3438 108.695 58.7309C107.524 58.118 106.187 57.2543 104.709 56.1677L103.901 56.3349C103.4 57.0035 102.926 57.5329 102.48 57.9508C102.034 58.3687 101.477 58.703 100.835 58.9538C100.194 59.2324 99.442 59.4553 98.6058 59.6503C97.7697 59.8453 96.7943 60.0682 95.7352 60.2911C94.9827 60.4304 94.3974 60.4304 93.9793 60.2632C93.5334 60.0961 93.2547 59.6503 93.1154 58.8981ZM105.546 10.0299C104.57 12.1195 103.845 14.4041 103.4 16.8837C102.954 19.3634 102.703 21.8709 102.647 24.4062C102.591 26.9415 102.675 29.5048 102.926 32.0401C103.149 34.6033 103.511 37.0272 103.957 39.3118C103.985 39.4511 104.068 39.7576 104.18 40.2034C104.319 40.677 104.431 41.1506 104.514 41.6521C104.626 42.1536 104.737 42.6551 104.849 43.1009C104.988 43.5745 105.044 43.881 105.072 43.9925C105.128 43.9089 105.239 43.7417 105.406 43.5188C105.573 43.2681 105.685 43.1009 105.741 43.0452L105.546 42.0422C106.103 39.6183 106.577 37.278 106.939 35.0212C107.301 32.7645 107.524 30.5356 107.636 28.3067C107.747 26.0779 107.719 23.8211 107.552 21.5365C107.385 19.2519 107.023 16.828 106.521 14.2648C106.493 14.1255 106.437 13.8469 106.354 13.4011C106.27 12.9553 106.187 12.5374 106.103 12.0917C106.019 11.6459 105.908 11.228 105.796 10.8379C105.657 10.4479 105.573 10.1693 105.546 10.0299Z" fill="white"/>
<path d="M127.591 49.2303C127.089 49.5089 126.699 49.5925 126.393 49.4532C126.114 49.3139 125.919 49.091 125.807 48.8124C125.696 48.5338 125.612 48.1716 125.584 47.7815C125.557 47.3915 125.529 47.1129 125.529 46.9736C125.529 45.5248 125.696 44.6611 126.058 44.3268C126.421 43.9925 126.894 43.7974 127.452 43.686C128.037 43.5745 128.65 43.4074 129.291 43.2123C129.932 42.9895 130.545 42.3208 131.131 41.1506C131.995 39.3397 132.775 37.473 133.444 35.4949C134.141 33.5167 134.977 31.6501 135.98 29.9227C136.983 28.1953 138.265 26.8022 139.826 25.7157C141.387 24.6291 143.505 24.0997 146.264 24.0997C146.71 24.0997 147.184 24.1276 147.714 24.2112C148.243 24.2948 148.745 24.4062 149.219 24.6012C149.692 24.7684 150.083 25.0749 150.417 25.4649C150.751 25.855 150.891 26.3843 150.891 27.0251C150.891 28.5296 150.501 29.8948 149.748 31.065C148.996 32.2351 148.048 33.3217 146.933 34.2968C145.818 35.272 144.62 36.1914 143.31 37.0551C142.028 37.9188 140.83 38.7546 139.743 39.5347C138.656 40.3148 137.736 41.1506 136.983 42.0143C136.231 42.878 135.841 43.8253 135.841 44.8283V55.1926C135.841 55.9727 136.147 56.6135 136.76 57.0871C137.374 57.5607 138.07 57.9229 138.879 58.2294C139.659 58.508 140.495 58.7309 141.359 58.8702C142.223 59.0095 142.864 59.0931 143.31 59.0931C145.038 59.0931 146.766 58.7866 148.494 58.1737C150.222 57.5607 151.894 56.7806 153.511 55.8612C155.127 54.9139 156.66 53.911 158.109 52.7965C159.559 51.6821 160.924 50.6234 162.206 49.6204C162.652 49.2582 163.015 48.896 163.349 48.4781C163.683 48.088 163.99 47.698 164.324 47.3358C164.659 46.9736 165.021 46.6671 165.411 46.4164C165.802 46.1656 166.331 45.9706 166.972 45.8313C166.972 45.9149 166.972 46.0542 166.972 46.2771C166.972 46.4999 166.972 46.6671 166.972 46.8064C166.972 47.3915 166.916 47.893 166.805 48.3109C166.693 48.7567 166.415 49.1746 165.997 49.6204C164.408 51.4313 162.708 53.103 160.924 54.6911C159.113 56.2791 157.217 57.6722 155.211 58.8981C153.204 60.1239 151.058 61.0991 148.828 61.8235C146.599 62.5479 144.23 62.91 141.694 62.91C139.157 62.91 137.234 62.5479 135.869 61.8235C134.503 61.0991 133.444 60.0682 132.691 58.703C131.939 57.3378 131.409 55.7219 131.131 53.8552C130.852 51.9885 130.518 49.9547 130.155 47.8094L127.591 49.2303ZM141.526 32.5137C141.526 32.3744 141.387 32.4023 141.136 32.5695C140.885 32.7366 140.607 32.9874 140.272 33.266C139.938 33.5446 139.715 33.8232 139.575 34.074C139.436 34.3247 139.436 34.464 139.575 34.464C139.938 34.5476 140.356 34.3247 140.885 33.8232C141.359 33.2938 141.582 32.8759 141.526 32.5137Z" fill="white"/>
<path d="M0.975464 203.106C0.975464 202.521 1.05908 201.379 1.25417 199.652C1.42139 197.924 1.67223 195.974 2.00667 193.773C2.34112 191.572 2.7313 189.287 3.26084 186.863C3.76251 184.44 4.40353 182.239 5.15604 180.233C5.90854 178.227 6.74466 176.555 7.69225 175.273C8.63985 173.992 9.69893 173.323 10.9252 173.323C12.4302 173.323 13.6287 173.908 14.4927 175.05C15.3566 176.193 16.0255 177.558 16.4993 179.09C16.9731 180.65 17.2797 182.211 17.4748 183.854C17.642 185.47 17.7535 186.752 17.7535 187.699C16.2485 187.699 15.273 187.449 14.8271 186.947C14.3812 186.446 14.0746 185.833 13.9074 185.108C13.7401 184.384 13.5172 183.659 13.3221 182.907C13.0991 182.155 12.486 181.486 11.4826 180.901C9.83828 181.904 8.55624 183.325 7.69225 185.164C6.8004 186.947 6.13151 188.953 5.68558 191.126C5.23965 193.299 4.93307 195.417 4.87733 197.506C4.79372 199.596 4.76585 201.463 4.76585 203.134C4.76585 205.14 5.15604 206.84 5.90854 208.205C6.66104 209.57 8.19392 210.267 10.5072 210.267C12.3188 210.267 14.0467 209.904 15.6911 209.18C17.3354 208.456 18.9241 207.536 20.4569 206.422C21.9619 205.307 23.3833 204.081 24.7211 202.744C26.0589 201.407 27.2852 200.125 28.4558 198.899H30.5182C30.4346 199.401 30.3788 199.735 30.2952 199.874C29.2919 201.964 28.0377 203.859 26.5048 205.586C24.9998 207.313 23.3276 208.79 21.5439 210.016C19.7323 211.242 17.7814 212.217 15.6632 212.941C13.5451 213.666 11.3154 214.028 9.03004 214.028C7.38568 214.028 6.02002 213.749 4.98881 213.22C3.92974 212.691 3.12149 211.91 2.56408 210.963C2.00667 210.016 1.58861 208.846 1.36565 207.508C1.08695 206.143 0.975464 204.694 0.975464 203.106Z" fill="white"/>
<path d="M36.9284 210.239C36.9284 210.016 36.9284 209.654 36.9284 209.097C36.9284 208.539 36.9005 207.982 36.8726 207.369C36.8448 206.756 36.8169 206.171 36.8169 205.642C36.8169 205.112 36.8169 204.694 36.8169 204.388C36.8169 202.382 36.9562 200.209 37.2628 197.896C37.5415 195.584 37.9875 193.355 38.5449 191.154C39.1023 188.953 39.8826 186.836 40.8581 184.774C41.8336 182.712 43.0599 180.929 44.537 179.369C46.0142 177.809 47.7143 176.583 49.6652 175.635C51.6161 174.688 53.8458 174.242 56.3541 174.242C57.9985 174.242 59.2805 174.716 60.1445 175.691C61.0085 176.666 61.5938 177.864 61.9282 179.313C62.2627 180.762 62.4299 182.266 62.4578 183.854C62.4856 185.443 62.5135 186.836 62.5135 188.061C62.5135 190.875 62.2348 193.801 61.6495 196.866C61.0642 199.93 60.1445 202.716 58.8346 205.224C57.5525 207.731 55.7688 209.821 53.4835 211.493C51.2259 213.136 48.3831 213.972 45.0108 213.972C44.0075 213.972 43.1435 213.944 42.4189 213.861C41.6942 213.777 41.0532 213.582 40.4679 213.276C39.8827 212.941 39.3252 212.551 38.74 212.078C38.1825 211.66 37.5973 211.019 36.9284 210.239ZM40.7188 208.289C41.3598 208.929 42.1123 209.264 42.9763 209.264C43.8403 209.264 44.6764 209.264 45.4567 209.264C48.1881 209.264 50.4177 208.567 52.1457 207.146C53.8736 205.725 55.2114 203.998 56.1869 201.908C57.1624 199.819 57.8312 197.534 58.2493 195.055C58.6395 192.575 58.8346 190.263 58.8346 188.089C58.8346 187.086 58.8625 185.972 58.8903 184.802C58.9182 183.604 58.8067 182.489 58.5559 181.458C58.305 180.428 57.8591 179.564 57.1902 178.867C56.5492 178.171 55.5737 177.837 54.2638 177.837C54.2638 178.979 54.1245 179.843 53.8179 180.428C53.5392 181.013 53.149 181.403 52.6752 181.626C52.2014 181.848 51.6719 181.96 51.0587 182.016C50.4456 182.044 49.8045 182.183 49.1078 182.406C48.411 182.629 47.7421 182.935 47.1011 183.381C46.4601 183.799 45.8748 184.579 45.3731 185.638C44.2304 188.869 43.1156 191.99 42.0844 194.971C41.0253 197.952 40.5237 201.1 40.5237 204.416C40.5237 204.639 40.5237 204.89 40.5237 205.224C40.5237 205.558 40.5515 205.92 40.5794 206.366C40.6073 206.812 40.6352 207.174 40.6352 207.508C40.6352 207.843 40.7188 208.066 40.7188 208.289Z" fill="white"/>
<path d="M80.6293 210.239C79.9047 208.651 78.9571 206.589 77.7586 204.026C76.5602 201.463 75.3618 198.844 74.1355 196.141C72.9092 193.439 71.7665 190.875 70.7353 188.479C69.6762 186.055 68.868 184.189 68.3105 182.824C68.3942 182.545 68.645 182.155 69.1188 181.681C69.5926 181.208 69.9549 180.957 70.2615 180.873C71.0419 180.734 71.878 181.208 72.742 182.322C73.6059 183.437 74.4699 184.913 75.3339 186.752C76.1979 188.591 77.0898 190.597 78.0373 192.798C78.9849 194.999 79.8489 197.033 80.685 198.955C81.5212 200.878 82.2737 202.438 82.9983 203.719C83.7229 204.973 84.3361 205.614 84.8378 205.614C84.9214 205.614 84.9771 205.586 85.0607 205.558C85.1443 205.53 85.2279 205.502 85.3952 205.502C85.3952 205.28 85.5066 204.945 85.7296 204.472C85.9526 203.998 86.1477 203.524 86.3149 203.023C86.4821 202.521 86.6772 202.048 86.8444 201.63C87.0116 201.184 87.151 200.905 87.2346 200.766C87.3182 200.627 87.5412 200.181 87.9314 199.429C88.3216 198.676 88.7396 197.869 89.1855 197.005C89.6315 196.141 90.0217 195.333 90.384 194.581C90.7463 193.829 90.9693 193.383 91.025 193.244C91.1644 192.965 91.4152 192.352 91.7218 191.405C92.0562 190.457 92.4464 189.399 92.9202 188.173C93.394 186.947 93.8678 185.665 94.3695 184.272C94.8711 182.907 95.3449 181.598 95.763 180.372C96.2089 179.146 96.5712 178.087 96.9057 177.196C97.2401 176.304 97.4631 175.663 97.6024 175.301C98.1041 172.989 98.8845 171.122 99.9157 169.645C100.947 168.169 101.867 167.277 102.619 166.943C103.372 166.609 103.762 166.971 103.818 167.974C103.845 168.977 103.037 170.788 101.393 173.379C101.253 173.964 100.947 174.911 100.473 176.248C99.9993 177.586 99.5255 179.007 99.0238 180.511C98.5222 182.016 98.0205 183.437 97.5746 184.774C97.1008 186.111 96.7942 187.058 96.6548 187.644C96.3761 188.507 95.9859 189.761 95.5122 191.377C95.0384 192.993 94.5088 194.804 93.8957 196.782C93.2825 198.76 92.6136 200.766 91.889 202.772C91.1644 204.778 90.384 206.645 89.5757 208.344C88.7396 210.044 87.9035 211.409 87.0395 212.496C86.1755 213.582 85.3115 214.111 84.4476 214.111C84.0016 214.111 83.6114 213.972 83.1934 213.694C82.8032 213.415 82.4409 213.081 82.1064 212.718C81.772 212.356 81.4933 211.938 81.2425 211.465C80.9916 210.991 80.7687 210.517 80.6293 210.239Z" fill="white"/>
<path d="M125.835 200.738C124.748 202.02 123.522 203.413 122.101 204.834C120.707 206.283 119.174 207.62 117.558 208.818C115.941 210.044 114.241 211.075 112.485 211.883C110.729 212.718 108.89 213.136 107.023 213.136C103.204 213.136 101.309 211.298 101.309 207.62C101.309 206.115 101.95 204.109 103.204 201.63C104.459 199.15 106.103 196.531 108.11 193.801C110.116 191.07 112.346 188.424 114.799 185.86C117.251 183.297 119.704 181.18 122.156 179.48C124.609 177.781 126.866 176.722 128.901 176.304C130.963 175.858 132.636 176.471 133.918 178.143C133.918 180.093 133.778 182.044 133.472 183.966C133.193 185.916 132.886 187.839 132.608 189.733C132.329 191.628 132.023 193.522 131.744 195.389C131.465 197.256 131.298 199.178 131.298 201.1C131.298 201.546 131.354 202.187 131.465 203.106C131.577 203.998 131.744 204.917 131.995 205.809C132.245 206.7 132.58 207.508 133.026 208.177C133.472 208.874 134.029 209.208 134.754 209.208C136.482 209.208 137.903 208.985 139.018 208.567C140.133 208.149 141.108 207.62 141.944 207.007C142.781 206.394 143.477 205.697 144.09 204.89C144.704 204.082 145.345 203.301 146.041 202.521C146.738 201.741 147.491 200.961 148.355 200.265C149.219 199.54 150.333 198.983 151.699 198.537C151.699 198.983 151.699 199.262 151.699 199.401C151.699 201.212 151.17 202.995 150.083 204.75C148.996 206.505 147.63 208.094 145.986 209.459C144.341 210.824 142.474 211.938 140.412 212.746C138.349 213.582 136.37 214 134.419 214C132.775 214 131.437 213.526 130.434 212.607C129.431 211.66 128.622 210.545 128.009 209.264C127.396 207.954 126.95 206.533 126.671 205.001C126.421 203.441 126.142 202.02 125.835 200.738ZM127.786 186.585C128.511 184.217 128.79 182.601 128.594 181.737C128.399 180.873 127.898 180.539 127.034 180.706C126.17 180.873 125.055 181.486 123.689 182.545C122.324 183.604 120.846 184.857 119.258 186.334C117.669 187.811 116.081 189.455 114.492 191.238C112.903 193.049 111.426 194.748 110.061 196.364C108.695 197.98 107.58 199.429 106.716 200.738C105.852 202.02 105.323 202.967 105.1 203.552C104.654 205.196 104.626 206.478 104.932 207.341C105.239 208.205 105.768 208.79 106.437 209.124C107.134 209.459 107.887 209.514 108.695 209.292C109.531 209.069 110.228 208.762 110.813 208.316C112.039 207.23 113.572 205.781 115.467 203.942C117.335 202.103 119.146 200.153 120.93 198.064C122.686 195.974 124.219 193.912 125.529 191.851C126.839 189.789 127.563 188.034 127.786 186.585Z" fill="white"/>
<path d="M14.1582 129.219C20.7914 110.831 62.3463 107.488 78.121 106.15C104.375 103.921 135.534 106.707 153.288 128.578C155.266 130.835 158.388 127.575 156.549 125.319C154.904 123.452 153.26 121.585 151.615 119.719C151.281 119.328 150.891 119.161 150.501 119.078C129.152 99.8537 95.5679 98.9343 68.422 102.64C50.7521 105.064 16.9174 107.933 9.67104 127.993C8.69558 130.807 13.1549 132.005 14.1582 129.219Z" fill="white"/>
<path d="M153.65 130.891C144.369 151.285 102.285 153.04 83.1656 154.378C57.4411 156.189 30.6018 153.291 13.0991 132.2C11.6778 130.501 9.25302 132.952 10.6465 134.652C29.8214 157.777 60.0888 159.95 88.0708 157.442C102.926 156.105 117.948 153.681 132.301 149.613C142.585 146.716 151.95 142.815 156.604 132.646C157.524 130.64 154.57 128.857 153.65 130.891Z" fill="white"/>
<path d="M76.9226 94.2536C76.5603 97.179 81.1868 97.1512 81.5212 94.2536C82.3852 86.9819 82.6918 79.4595 79.9884 72.5221C78.9293 69.7917 74.47 70.9897 75.5569 73.748C78.121 80.3231 77.7308 87.372 76.9226 94.2536Z" fill="white"/>
<path d="M103.483 94.6994C105.936 90.2416 107.692 85.5053 108.667 80.5182C109.029 78.7072 106.242 77.9271 105.88 79.7659C104.96 84.5301 103.344 89.0158 101.003 93.2506C100.111 94.8666 102.591 96.3432 103.483 94.6994Z" fill="white"/>
<path d="M124.916 100.327C128.176 97.374 131.103 93.3342 130.573 88.7372C130.239 85.8396 125.64 85.7839 125.975 88.7372C126.365 92.2198 124.079 94.8666 121.655 97.0954C119.453 99.0736 122.714 102.305 124.916 100.327Z" fill="white"/>
<path d="M142.362 107.153C146.738 104.924 149.943 99.2686 148.02 94.4487C147.351 92.7492 144.564 93.5014 145.233 95.2009C146.71 98.8786 144.23 102.974 140.913 104.646C139.241 105.509 140.69 107.989 142.362 107.153Z" fill="white"/>
<path d="M62.1233 95.0337C60.2281 90.9382 58.0542 86.8705 57.4411 82.357C57.0509 79.4594 52.4523 79.4316 52.8424 82.357C53.5671 87.7899 55.8803 92.4427 58.1378 97.374C59.3641 100.049 63.3496 97.7084 62.1233 95.0337Z" fill="white"/>
<path d="M44.0354 99.185C41.4992 95.7581 38.2105 91.4118 37.7088 87.0376C37.3744 84.1401 32.7479 84.0844 33.1102 87.0376C33.7512 92.3869 36.9284 97.2626 40.0778 101.497C41.8058 103.866 45.8191 101.581 44.0354 99.185Z" fill="white"/>
<path d="M26.3097 107.153C27.9541 107.989 29.4033 105.509 27.759 104.674C24.4424 102.974 21.9619 98.9064 23.4391 95.2288C24.1358 93.5014 21.3488 92.777 20.652 94.4765C18.7011 99.2686 21.934 104.924 26.3097 107.153Z" fill="white"/>
<path d="M92.8923 112.753C92.6415 112.419 92.307 112.14 91.7775 112.001C87.6527 110.803 82.8589 110.859 78.4833 112.085C77.8144 111.834 76.9783 111.806 76.1421 112.196C68.8679 115.651 59.2247 124.288 64.2414 133.259C66.5826 137.466 71.7386 140.029 77.0619 141.534C79.18 142.425 81.4375 142.899 83.6672 142.955C84.7541 143.122 85.8132 143.261 86.7887 143.345C93.6448 144.041 101.003 141.589 102.452 134.095C103.985 126.182 100.696 116.292 93.1153 112.781C93.0595 112.781 92.9759 112.753 92.8923 112.753ZM86.7608 115.818C87.0116 116.069 87.3461 116.264 87.8199 116.347C90.3561 116.765 92.5579 118.047 94.1465 119.802C95.317 121.418 96.2089 123.285 96.8221 125.207C97.1844 127.325 96.9335 129.609 95.7908 131.81C91.5824 139.946 79.7932 140.503 73.8568 133.956C64.2972 123.313 76.4766 115.372 86.7608 115.818Z" fill="white"/>
</g>
<defs>
<clipPath id="clip0">
<rect width="167" height="214" fill="white"/>
</clipPath>
</defs>
</svg>
