<svg width="54" height="33" viewBox="0 0 54 33" fill="none" xmlns="http://www.w3.org/2000/svg">
<g clip-path="url(#clip0)">
<path d="M2.14995 21.41C4.52995 14.81 19.44 13.61 25.1 13.13C34.52 12.33 45.7 13.33 52.07 21.18C52.78 21.99 53.9 20.82 53.24 20.01C52.65 19.34 52.06 18.67 51.47 18C51.35 17.86 51.21 17.8 51.07 17.77C43.41 10.87 31.36 10.54 21.62 11.87C15.28 12.74 3.13995 13.77 0.539954 20.97C0.189955 21.97 1.78995 22.4 2.14995 21.41Z" fill="#114C59" stroke="#114C59" stroke-miterlimit="10"/>
<path d="M52.2 22.0101C48.87 29.3301 33.77 29.9601 26.91 30.4401C17.68 31.0901 8.05001 30.0501 1.77001 22.4801C1.26001 21.8701 0.390005 22.7501 0.890005 23.3601C7.77001 31.6601 18.63 32.4401 28.67 31.5401C34 31.0601 39.39 30.1901 44.54 28.7301C48.23 27.6901 51.59 26.2901 53.26 22.6401C53.6 21.9101 52.53 21.2801 52.2 22.0101Z" fill="#114C59" stroke="#114C59" stroke-miterlimit="10"/>
<path d="M24.6699 8.86005C24.5399 9.91005 26.1999 9.90005 26.3199 8.86005C26.6299 6.25005 26.7399 3.55005 25.7699 1.06005C25.3899 0.0800484 23.7899 0.510049 24.1799 1.50005C25.0999 3.86005 24.9699 6.38005 24.6699 8.86005Z" fill="#114C59" stroke="#114C59" stroke-miterlimit="10"/>
<path d="M34.21 9.02C35.09 7.42 35.72 5.72 36.07 3.93C36.2 3.28 35.2 3 35.07 3.66C34.74 5.37 34.16 6.98 33.32 8.5C32.99 9.08 33.88 9.6 34.21 9.02Z" fill="#114C59" stroke="#114C59" stroke-miterlimit="10"/>
<path d="M41.89 11.04C43.06 9.98005 44.11 8.53005 43.92 6.88005C43.8 5.84005 42.15 5.82005 42.27 6.88005C42.41 8.13005 41.59 9.08005 40.72 9.88005C39.93 10.58 41.1 11.75 41.89 11.04Z" fill="#114C59" stroke="#114C59" stroke-miterlimit="10"/>
<path d="M48.1499 13.48C49.7199 12.68 50.8699 10.65 50.1799 8.92003C49.9399 8.31003 48.9399 8.58003 49.1799 9.19003C49.7099 10.51 48.8199 11.98 47.6299 12.58C47.0299 12.89 47.5599 13.78 48.1499 13.48Z" fill="#114C59" stroke="#114C59" stroke-miterlimit="10"/>
<path d="M19.3599 9.14003C18.6799 7.67003 17.8999 6.21003 17.6799 4.59003C17.5399 3.55003 15.8899 3.54003 16.0299 4.59003C16.2899 6.54003 17.1199 8.21003 17.9299 9.98003C18.3799 10.94 19.7999 10.1 19.3599 9.14003Z" fill="#114C59" stroke="#114C59" stroke-miterlimit="10"/>
<path d="M12.87 10.6301C11.96 9.40006 10.78 7.84006 10.6 6.27006C10.48 5.23006 8.82 5.21006 8.95 6.27006C9.18 8.19006 10.32 9.94006 11.45 11.4601C12.07 12.3101 13.51 11.4901 12.87 10.6301Z" fill="#114C59" stroke="#114C59" stroke-miterlimit="10"/>
<path d="M6.51001 13.4801C7.10001 13.7801 7.62001 12.8901 7.03001 12.5901C5.84001 11.9801 4.95001 10.5201 5.48001 9.20007C5.73001 8.58007 4.73001 8.32007 4.48001 8.93007C3.79001 10.6501 4.94001 12.6801 6.51001 13.4801Z" fill="#114C59" stroke="#114C59" stroke-miterlimit="10"/>
<path d="M30.3999 15.4901C30.3099 15.3701 30.1899 15.2701 29.9999 15.2201C28.5199 14.7901 26.7999 14.8101 25.2299 15.2501C24.9899 15.1601 24.6899 15.1501 24.3899 15.2901C21.7799 16.5301 18.3199 19.6301 20.1199 22.8501C20.9599 24.3601 22.8099 25.2801 24.7199 25.8201C25.4799 26.1401 26.2899 26.3101 27.0899 26.3301C27.4799 26.3901 27.8599 26.4401 28.2099 26.4701C30.6699 26.7201 33.3099 25.8401 33.8299 23.1501C34.3799 20.3101 33.1999 16.7601 30.4799 15.5001C30.4599 15.5101 30.4299 15.5001 30.3999 15.4901ZM28.1999 16.6001C28.2899 16.6901 28.4099 16.7601 28.5799 16.7901C29.4899 16.9401 30.2799 17.4001 30.8499 18.0301C31.2699 18.6101 31.5899 19.2801 31.8099 19.9701C31.9399 20.7301 31.8499 21.5501 31.4399 22.3401C29.9299 25.2601 25.6999 25.4601 23.5699 23.1101C20.1399 19.2901 24.5099 16.4301 28.1999 16.6001Z" fill="#114C59" stroke="#114C59" stroke-miterlimit="10"/>
</g>
<defs>
<clipPath id="clip0">
<rect width="53.94" height="32.32" fill="white"/>
</clipPath>
</defs>
</svg>
